<svg xmlns="http://www.w3.org/2000/svg" xmlns:xlink="http://www.w3.org/1999/xlink" contentStyleType="text/css" data-diagram-type="ACTIVITY" height="1837px" preserveAspectRatio="none" style="width:751px;height:1837px;background:#FFFFFF;" version="1.1" viewBox="0 0 751 1837" width="751px" zoomAndPan="magnify"><?plantuml 1.2026.6?><defs/><g><g class="title" data-source-line="1"><text fill="#000000" font-family="sans-serif" font-size="14" font-weight="700" lengthAdjust="spacing" textLength="709.1533" x="20" y="32.9951">Activity Diagram - Perbandingan Alur Proses pada KOSKITA (Bab III, sesuai Subbab 2.8.2)</text></g><rect fill="#FFFFFF" height="636.6636" style="stroke:#355DDB;stroke-width:1.5;" width="518.062" x="122.4255" y="53.2969"/><path d="M630.9363,53.2969 L630.9363,62.5938 L620.9363,72.5938 L122.4255,72.5938" fill="none" style="stroke:#355DDB;stroke-width:1.5;"/><text fill="#000000" font-family="sans-serif" font-size="14" lengthAdjust="spacing" textLength="498.5107" x="125.4255" y="67.292">ALUR LAMA -- Manual, tanpa rekomendasi (ringkasan dari Gambar 3.2)</text><ellipse cx="369.6809" cy="92.5938" fill="#222222" rx="10" ry="10" style="stroke:#222222;stroke-width:1;"/><rect fill="#F2F5FF" height="33.9688" rx="12.5" ry="12.5" style="stroke:#355DDB;stroke-width:0.5;" width="244.5137" x="247.4241" y="122.5938"/><text fill="#000000" font-family="sans-serif" font-size="12" lengthAdjust="spacing" textLength="224.5137" x="257.4241" y="143.7324">Penyewa buka aplikasi pencarian kos</text><rect fill="#F2F5FF" height="47.9375" rx="12.5" ry="12.5" style="stroke:#355DDB;stroke-width:0.5;" width="190.8594" x="274.2512" y="220.5625"/><text fill="#000000" font-family="sans-serif" font-size="12" lengthAdjust="spacing" textLength="162.7734" x="284.2512" y="241.7012">Penyewa atur filter manual</text><text fill="#000000" font-family="sans-serif" font-size="12" lengthAdjust="spacing" textLength="170.8594" x="284.2512" y="255.6699">(lokasi, harga, tipe, fasilitas)</text><rect fill="#F2F5FF" height="47.9375" rx="12.5" ry="12.5" style="stroke:#355DDB;stroke-width:0.5;" width="302.5859" x="218.3879" y="288.5"/><text fill="#000000" font-family="sans-serif" font-size="12" lengthAdjust="spacing" textLength="168.1582" x="228.3879" y="309.6387">Sistem tampilkan hasil filter</text><text fill="#000000" font-family="sans-serif" font-size="12" lengthAdjust="spacing" textLength="282.5859" x="228.3879" y="323.6074">(daftar mentah, sama untuk semua pengguna)</text><rect fill="#F2F5FF" height="47.9375" rx="12.5" ry="12.5" style="stroke:#355DDB;stroke-width:0.5;" width="210.4883" x="264.4368" y="356.4375"/><text fill="#000000" font-family="sans-serif" font-size="12" lengthAdjust="spacing" textLength="190.4883" x="274.4368" y="377.5762">Penyewa telusuri &amp; bandingkan</text><text fill="#000000" font-family="sans-serif" font-size="12" lengthAdjust="spacing" textLength="111.0879" x="274.4368" y="391.5449">hasil satu per satu</text><polygon fill="#F2F5FF" points="369.6809,176.5625,381.6809,188.5625,369.6809,200.5625,357.6809,188.5625,369.6809,176.5625" style="stroke:#355DDB;stroke-width:0.5;stroke-linejoin:miter;stroke-miterlimit:10;"/><polygon fill="#F2F5FF" points="302.8081,424.375,436.5537,424.375,448.5537,436.375,436.5537,448.375,302.8081,448.375,290.8081,436.375,302.8081,424.375" style="stroke:#355DDB;stroke-width:0.5;stroke-linejoin:miter;stroke-miterlimit:10;"/><text fill="#000000" font-family="sans-serif" font-size="11" lengthAdjust="spacing" textLength="13.2505" x="373.6809" y="458.5854">ya</text><text fill="#000000" font-family="sans-serif" font-size="11" lengthAdjust="spacing" textLength="133.7456" x="302.8081" y="440.1831">Hasil sesuai kebutuhan?</text><text fill="#000000" font-family="sans-serif" font-size="11" lengthAdjust="spacing" textLength="27.4624" x="448.5537" y="433.7808">tidak</text><rect fill="#F2F5FF" height="47.9375" rx="12.5" ry="12.5" style="stroke:#355DDB;stroke-width:0.5;" width="272.3105" x="233.5256" y="480.0854"/><text fill="#000000" font-family="sans-serif" font-size="12" lengthAdjust="spacing" textLength="198.6563" x="243.5256" y="501.2241">Penyewa hubungi &amp; survei lokasi</text><text fill="#000000" font-family="sans-serif" font-size="12" lengthAdjust="spacing" textLength="252.3105" x="243.5256" y="515.1929">ke pemilik kos (berulang bila belum puas)</text><rect fill="#F2F5FF" height="33.9688" rx="12.5" ry="12.5" style="stroke:#355DDB;stroke-width:0.5;" width="260.0645" x="239.6487" y="548.0229"/><text fill="#000000" font-family="sans-serif" font-size="12" lengthAdjust="spacing" textLength="240.0645" x="249.6487" y="569.1616">Penyewa melakukan pemesanan kamar</text><rect fill="#F2F5FF" height="33.9688" rx="12.5" ry="12.5" style="stroke:#355DDB;stroke-width:0.5;" width="179.3867" x="279.9875" y="601.9917"/><text fill="#000000" font-family="sans-serif" font-size="12" lengthAdjust="spacing" textLength="159.3867" x="289.9875" y="623.1304">Penyewa membayar biaya</text><ellipse cx="369.6809" cy="666.9604" fill="none" rx="11" ry="11" style="stroke:#222222;stroke-width:1;"/><ellipse cx="369.6809" cy="666.9604" fill="#222222" rx="6" ry="6" style="stroke:#222222;stroke-width:1;"/><rect fill="#FFFFFF" height="935.6016" style="stroke:#355DDB;stroke-width:1.5;" width="548.9243" x="99.1145" y="699.9604"/><path d="M528.0071,699.9604 L528.0071,709.2573 L518.0071,719.2573 L99.1145,719.2573" fill="none" style="stroke:#355DDB;stroke-width:1.5;"/><text fill="#000000" font-family="sans-serif" font-size="14" lengthAdjust="spacing" textLength="418.8926" x="102.1145" y="713.9556">ALUR BARU -- Modul Rekomendasi KOSKITA (sistem usulan)</text><ellipse cx="369.6809" cy="739.2573" fill="#222222" rx="10" ry="10" style="stroke:#222222;stroke-width:1;"/><rect fill="#F2F5FF" height="33.9688" rx="12.5" ry="12.5" style="stroke:#355DDB;stroke-width:0.5;" width="212.252" x="263.5549" y="769.2573"/><text fill="#000000" font-family="sans-serif" font-size="12" lengthAdjust="spacing" textLength="192.252" x="273.5549" y="790.396">Penyewa buka aplikasi KOSKITA</text><rect fill="#F2F5FF" height="61.9063" rx="12.5" ry="12.5" style="stroke:#355DDB;stroke-width:0.5;" width="214.1973" x="262.5823" y="871.6284"/><text fill="#000000" font-family="sans-serif" font-size="12" lengthAdjust="spacing" textLength="132.5801" x="272.5823" y="892.7671">Isi profil sekali di awal</text><text fill="#000000" font-family="sans-serif" font-size="12" lengthAdjust="spacing" textLength="174.668" x="272.5823" y="906.7358">(mahasiswa/pekerja, gender,</text><text fill="#000000" font-family="sans-serif" font-size="12" lengthAdjust="spacing" textLength="194.1973" x="272.5823" y="920.7046">anggaran, lokasi, status tinggal)</text><polygon fill="#F2F5FF" points="274.9536,823.2261,464.4082,823.2261,476.4082,835.2261,464.4082,847.2261,274.9536,847.2261,262.9536,835.2261,274.9536,823.2261" style="stroke:#355DDB;stroke-width:0.5;stroke-linejoin:miter;stroke-miterlimit:10;"/><text fill="#000000" font-family="sans-serif" font-size="11" lengthAdjust="spacing" textLength="34.4932" x="373.6809" y="857.4365">belum</text><text fill="#000000" font-family="sans-serif" font-size="11" lengthAdjust="spacing" textLength="189.4546" x="274.9536" y="839.0342">Sudah pernah isi profil preferensi?</text><text fill="#000000" font-family="sans-serif" font-size="11" lengthAdjust="spacing" textLength="33.3975" x="476.4082" y="832.6318">sudah</text><polygon fill="#F2F5FF" points="369.6809,953.5347,381.6809,965.5347,369.6809,977.5347,357.6809,965.5347,369.6809,953.5347" style="stroke:#355DDB;stroke-width:0.5;stroke-linejoin:miter;stroke-miterlimit:10;"/><polygon fill="#F2F5FF" points="254.2668,997.5347,485.095,997.5347,497.095,1009.5347,485.095,1021.5347,254.2668,1021.5347,242.2668,1009.5347,254.2668,997.5347" style="stroke:#355DDB;stroke-width:0.5;stroke-linejoin:miter;stroke-miterlimit:10;"/><text fill="#000000" font-family="sans-serif" font-size="11" lengthAdjust="spacing" textLength="230.8281" x="254.2668" y="1013.3428">Pengguna sudah punya riwayat interaksi?</text><text fill="#000000" font-family="sans-serif" font-size="11" lengthAdjust="spacing" textLength="101.8306" x="140.4363" y="1006.9404">belum -- cold-start</text><text fill="#000000" font-family="sans-serif" font-size="11" lengthAdjust="spacing" textLength="108.8936" x="497.095" y="1006.9404">sudah -- warm-start</text><rect fill="#F2F5FF" height="47.9375" rx="12.5" ry="12.5" style="stroke:#355DDB;stroke-width:0.5;" width="242.3047" x="111.1145" y="1031.5347"/><text fill="#000000" font-family="sans-serif" font-size="12" lengthAdjust="spacing" textLength="221.9121" x="121.1145" y="1052.6733">RecommendationService hitung skor</text><text fill="#000000" font-family="sans-serif" font-size="12" lengthAdjust="spacing" textLength="222.3047" x="121.1145" y="1066.6421">Content-Based dari profil (alpha = 1)</text><rect fill="#F2F5FF" height="47.9375" rx="12.5" ry="12.5" style="stroke:#355DDB;stroke-width:0.5;" width="242.7852" x="385.7024" y="1031.5347"/><text fill="#000000" font-family="sans-serif" font-size="12" lengthAdjust="spacing" textLength="221.9121" x="395.7024" y="1052.6733">RecommendationService hitung skor</text><text fill="#000000" font-family="sans-serif" font-size="12" lengthAdjust="spacing" textLength="222.7852" x="395.7024" y="1066.6421">hybrid = alpha x CB + (1-alpha) x CF</text><polygon fill="#F2F5FF" points="369.6809,1085.4722,381.6809,1097.4722,369.6809,1109.4722,357.6809,1097.4722,369.6809,1085.4722" style="stroke:#355DDB;stroke-width:0.5;stroke-linejoin:miter;stroke-miterlimit:10;"/><rect fill="#F2F5FF" height="47.9375" rx="12.5" ry="12.5" style="stroke:#355DDB;stroke-width:0.5;" width="230.7559" x="254.303" y="1129.4722"/><text fill="#000000" font-family="sans-serif" font-size="12" lengthAdjust="spacing" textLength="168.5039" x="264.303" y="1150.6108">Sistem tampilkan Top-N kos</text><text fill="#000000" font-family="sans-serif" font-size="12" lengthAdjust="spacing" textLength="210.7559" x="264.303" y="1164.5796">yang dipersonalisasi per pengguna</text><rect fill="#F2F5FF" height="33.9688" rx="12.5" ry="12.5" style="stroke:#355DDB;stroke-width:0.5;" width="279.2715" x="230.0452" y="1197.4097"/><text fill="#000000" font-family="sans-serif" font-size="12" lengthAdjust="spacing" textLength="259.2715" x="240.0452" y="1218.5483">Penyewa lihat detail kos hasil rekomendasi</text><rect fill="#F2F5FF" height="61.9063" rx="12.5" ry="12.5" style="stroke:#355DDB;stroke-width:0.5;" width="214.7305" x="262.3157" y="1299.7808"/><text fill="#000000" font-family="sans-serif" font-size="12" lengthAdjust="spacing" textLength="194.7305" x="272.3157" y="1320.9194">Penyewa beri rating/klik kos lain</text><text fill="#000000" font-family="sans-serif" font-size="12" lengthAdjust="spacing" textLength="170.6426" x="272.3157" y="1334.8882">(memperkaya data interaksi</text><text fill="#000000" font-family="sans-serif" font-size="12" lengthAdjust="spacing" textLength="189.2109" x="272.3157" y="1348.8569">untuk rekomendasi berikutnya)</text><polygon fill="#F2F5FF" points="296.2473,1251.3784,443.1145,1251.3784,455.1145,1263.3784,443.1145,1275.3784,296.2473,1275.3784,284.2473,1263.3784,296.2473,1251.3784" style="stroke:#355DDB;stroke-width:0.5;stroke-linejoin:miter;stroke-miterlimit:10;"/><text fill="#000000" font-family="sans-serif" font-size="11" lengthAdjust="spacing" textLength="27.4624" x="373.6809" y="1285.5889">tidak</text><text fill="#000000" font-family="sans-serif" font-size="11" lengthAdjust="spacing" textLength="146.8672" x="296.2473" y="1267.1865">Cocok dengan kebutuhan?</text><text fill="#000000" font-family="sans-serif" font-size="11" lengthAdjust="spacing" textLength="13.2505" x="455.1145" y="1260.7842">ya</text><polygon fill="#F2F5FF" points="369.6809,1381.687,381.6809,1393.687,369.6809,1405.687,357.6809,1393.687,369.6809,1381.687" style="stroke:#355DDB;stroke-width:0.5;stroke-linejoin:miter;stroke-miterlimit:10;"/><rect fill="#F2F5FF" height="47.9375" rx="12.5" ry="12.5" style="stroke:#355DDB;stroke-width:0.5;" width="218.6563" x="260.3528" y="1425.687"/><text fill="#000000" font-family="sans-serif" font-size="12" lengthAdjust="spacing" textLength="198.6563" x="270.3528" y="1446.8257">Penyewa hubungi &amp; survei lokasi</text><text fill="#000000" font-family="sans-serif" font-size="12" lengthAdjust="spacing" textLength="86.1445" x="270.3528" y="1460.7944">ke pemilik kos</text><rect fill="#F2F5FF" height="33.9688" rx="12.5" ry="12.5" style="stroke:#355DDB;stroke-width:0.5;" width="260.0645" x="239.6487" y="1493.6245"/><text fill="#000000" font-family="sans-serif" font-size="12" lengthAdjust="spacing" textLength="240.0645" x="249.6487" y="1514.7632">Penyewa melakukan pemesanan kamar</text><rect fill="#F2F5FF" height="33.9688" rx="12.5" ry="12.5" style="stroke:#355DDB;stroke-width:0.5;" width="179.3867" x="279.9875" y="1547.5933"/><text fill="#000000" font-family="sans-serif" font-size="12" lengthAdjust="spacing" textLength="159.3867" x="289.9875" y="1568.7319">Penyewa membayar biaya</text><ellipse cx="369.6809" cy="1612.562" fill="none" rx="11" ry="11" style="stroke:#222222;stroke-width:1;"/><ellipse cx="369.6809" cy="1612.562" fill="#222222" rx="6" ry="6" style="stroke:#222222;stroke-width:1;"/><line style="stroke:#181818;stroke-width:1;" x1="369.6809" x2="369.6809" y1="102.5938" y2="122.5938"/><polygon fill="#181818" points="365.6809,112.5938,369.6809,122.5938,373.6809,112.5938,369.6809,116.5938" style="stroke:#181818;stroke-width:1;stroke-linejoin:miter;stroke-miterlimit:10;"/><line style="stroke:#181818;stroke-width:1;" x1="369.6809" x2="369.6809" y1="268.5" y2="288.5"/><polygon fill="#181818" points="365.6809,278.5,369.6809,288.5,373.6809,278.5,369.6809,282.5" style="stroke:#181818;stroke-width:1;stroke-linejoin:miter;stroke-miterlimit:10;"/><line style="stroke:#181818;stroke-width:1;" x1="369.6809" x2="369.6809" y1="336.4375" y2="356.4375"/><polygon fill="#181818" points="365.6809,346.4375,369.6809,356.4375,373.6809,346.4375,369.6809,350.4375" style="stroke:#181818;stroke-width:1;stroke-linejoin:miter;stroke-miterlimit:10;"/><line style="stroke:#181818;stroke-width:1;" x1="369.6809" x2="369.6809" y1="200.5625" y2="220.5625"/><polygon fill="#181818" points="365.6809,210.5625,369.6809,220.5625,373.6809,210.5625,369.6809,214.5625" style="stroke:#181818;stroke-width:1;stroke-linejoin:miter;stroke-miterlimit:10;"/><line style="stroke:#181818;stroke-width:1;" x1="448.5537" x2="532.9739" y1="436.375" y2="436.375"/><polygon fill="#181818" points="528.9739,322.4688,532.9739,312.4688,536.9739,322.4688,532.9739,318.4688" style="stroke:#181818;stroke-width:1;stroke-linejoin:miter;stroke-miterlimit:10;"/><line style="stroke:#181818;stroke-width:1;" x1="532.9739" x2="532.9739" y1="188.5625" y2="436.375"/><line style="stroke:#181818;stroke-width:1;" x1="532.9739" x2="381.6809" y1="188.5625" y2="188.5625"/><polygon fill="#181818" points="391.6809,184.5625,381.6809,188.5625,391.6809,192.5625,387.6809,188.5625" style="stroke:#181818;stroke-width:1;stroke-linejoin:miter;stroke-miterlimit:10;"/><line style="stroke:#181818;stroke-width:1;" x1="369.6809" x2="369.6809" y1="404.375" y2="424.375"/><polygon fill="#181818" points="365.6809,414.375,369.6809,424.375,373.6809,414.375,369.6809,418.375" style="stroke:#181818;stroke-width:1;stroke-linejoin:miter;stroke-miterlimit:10;"/><line style="stroke:#181818;stroke-width:1;" x1="369.6809" x2="369.6809" y1="156.5625" y2="176.5625"/><polygon fill="#181818" points="365.6809,166.5625,369.6809,176.5625,373.6809,166.5625,369.6809,170.5625" style="stroke:#181818;stroke-width:1;stroke-linejoin:miter;stroke-miterlimit:10;"/><line style="stroke:#181818;stroke-width:1;" x1="369.6809" x2="369.6809" y1="448.375" y2="480.0854"/><polygon fill="#181818" points="365.6809,470.0854,369.6809,480.0854,373.6809,470.0854,369.6809,474.0854" style="stroke:#181818;stroke-width:1;stroke-linejoin:miter;stroke-miterlimit:10;"/><line style="stroke:#181818;stroke-width:1;" x1="369.6809" x2="369.6809" y1="528.0229" y2="548.0229"/><polygon fill="#181818" points="365.6809,538.0229,369.6809,548.0229,373.6809,538.0229,369.6809,542.0229" style="stroke:#181818;stroke-width:1;stroke-linejoin:miter;stroke-miterlimit:10;"/><line style="stroke:#181818;stroke-width:1;" x1="369.6809" x2="369.6809" y1="581.9917" y2="601.9917"/><polygon fill="#181818" points="365.6809,591.9917,369.6809,601.9917,373.6809,591.9917,369.6809,595.9917" style="stroke:#181818;stroke-width:1;stroke-linejoin:miter;stroke-miterlimit:10;"/><line style="stroke:#181818;stroke-width:1;" x1="369.6809" x2="369.6809" y1="635.9604" y2="655.9604"/><polygon fill="#181818" points="365.6809,645.9604,369.6809,655.9604,373.6809,645.9604,369.6809,649.9604" style="stroke:#181818;stroke-width:1;stroke-linejoin:miter;stroke-miterlimit:10;"/><line style="stroke:#181818;stroke-width:1;" x1="369.6809" x2="369.6809" y1="749.2573" y2="769.2573"/><polygon fill="#181818" points="365.6809,759.2573,369.6809,769.2573,373.6809,759.2573,369.6809,763.2573" style="stroke:#181818;stroke-width:1;stroke-linejoin:miter;stroke-miterlimit:10;"/><line style="stroke:#181818;stroke-width:1;" x1="369.6809" x2="369.6809" y1="847.2261" y2="871.6284"/><polygon fill="#181818" points="365.6809,861.6284,369.6809,871.6284,373.6809,861.6284,369.6809,865.6284" style="stroke:#181818;stroke-width:1;stroke-linejoin:miter;stroke-miterlimit:10;"/><line style="stroke:#181818;stroke-width:1;" x1="476.4082" x2="488.4082" y1="835.2261" y2="835.2261"/><polygon fill="#181818" points="484.4082,892.5815,488.4082,902.5815,492.4082,892.5815,488.4082,896.5815" style="stroke:#181818;stroke-width:1;stroke-linejoin:miter;stroke-miterlimit:10;"/><line style="stroke:#181818;stroke-width:1;" x1="488.4082" x2="488.4082" y1="835.2261" y2="965.5347"/><line style="stroke:#181818;stroke-width:1;" x1="488.4082" x2="381.6809" y1="965.5347" y2="965.5347"/><polygon fill="#181818" points="391.6809,961.5347,381.6809,965.5347,391.6809,969.5347,387.6809,965.5347" style="stroke:#181818;stroke-width:1;stroke-linejoin:miter;stroke-miterlimit:10;"/><line style="stroke:#181818;stroke-width:1;" x1="369.6809" x2="369.6809" y1="933.5347" y2="953.5347"/><polygon fill="#181818" points="365.6809,943.5347,369.6809,953.5347,373.6809,943.5347,369.6809,947.5347" style="stroke:#181818;stroke-width:1;stroke-linejoin:miter;stroke-miterlimit:10;"/><line style="stroke:#181818;stroke-width:1;" x1="369.6809" x2="369.6809" y1="803.2261" y2="823.2261"/><polygon fill="#181818" points="365.6809,813.2261,369.6809,823.2261,373.6809,813.2261,369.6809,817.2261" style="stroke:#181818;stroke-width:1;stroke-linejoin:miter;stroke-miterlimit:10;"/><line style="stroke:#181818;stroke-width:1;" x1="242.2668" x2="232.2668" y1="1009.5347" y2="1009.5347"/><line style="stroke:#181818;stroke-width:1;" x1="232.2668" x2="232.2668" y1="1009.5347" y2="1031.5347"/><polygon fill="#181818" points="228.2668,1021.5347,232.2668,1031.5347,236.2668,1021.5347,232.2668,1025.5347" style="stroke:#181818;stroke-width:1;stroke-linejoin:miter;stroke-miterlimit:10;"/><line style="stroke:#181818;stroke-width:1;" x1="497.095" x2="507.095" y1="1009.5347" y2="1009.5347"/><line style="stroke:#181818;stroke-width:1;" x1="507.095" x2="507.095" y1="1009.5347" y2="1031.5347"/><polygon fill="#181818" points="503.095,1021.5347,507.095,1031.5347,511.095,1021.5347,507.095,1025.5347" style="stroke:#181818;stroke-width:1;stroke-linejoin:miter;stroke-miterlimit:10;"/><line style="stroke:#181818;stroke-width:1;" x1="232.2668" x2="232.2668" y1="1079.4722" y2="1097.4722"/><line style="stroke:#181818;stroke-width:1;" x1="232.2668" x2="357.6809" y1="1097.4722" y2="1097.4722"/><polygon fill="#181818" points="347.6809,1093.4722,357.6809,1097.4722,347.6809,1101.4722,351.6809,1097.4722" style="stroke:#181818;stroke-width:1;stroke-linejoin:miter;stroke-miterlimit:10;"/><line style="stroke:#181818;stroke-width:1;" x1="507.095" x2="507.095" y1="1079.4722" y2="1097.4722"/><line style="stroke:#181818;stroke-width:1;" x1="507.095" x2="381.6809" y1="1097.4722" y2="1097.4722"/><polygon fill="#181818" points="391.6809,1093.4722,381.6809,1097.4722,391.6809,1101.4722,387.6809,1097.4722" style="stroke:#181818;stroke-width:1;stroke-linejoin:miter;stroke-miterlimit:10;"/><line style="stroke:#181818;stroke-width:1;" x1="369.6809" x2="369.6809" y1="977.5347" y2="997.5347"/><polygon fill="#181818" points="365.6809,987.5347,369.6809,997.5347,373.6809,987.5347,369.6809,991.5347" style="stroke:#181818;stroke-width:1;stroke-linejoin:miter;stroke-miterlimit:10;"/><line style="stroke:#181818;stroke-width:1;" x1="369.6809" x2="369.6809" y1="1109.4722" y2="1129.4722"/><polygon fill="#181818" points="365.6809,1119.4722,369.6809,1129.4722,373.6809,1119.4722,369.6809,1123.4722" style="stroke:#181818;stroke-width:1;stroke-linejoin:miter;stroke-miterlimit:10;"/><line style="stroke:#181818;stroke-width:1;" x1="369.6809" x2="369.6809" y1="1177.4097" y2="1197.4097"/><polygon fill="#181818" points="365.6809,1187.4097,369.6809,1197.4097,373.6809,1187.4097,369.6809,1191.4097" style="stroke:#181818;stroke-width:1;stroke-linejoin:miter;stroke-miterlimit:10;"/><line style="stroke:#181818;stroke-width:1;" x1="369.6809" x2="369.6809" y1="1275.3784" y2="1299.7808"/><polygon fill="#181818" points="365.6809,1289.7808,369.6809,1299.7808,373.6809,1289.7808,369.6809,1293.7808" style="stroke:#181818;stroke-width:1;stroke-linejoin:miter;stroke-miterlimit:10;"/><line style="stroke:#181818;stroke-width:1;" x1="455.1145" x2="487.0461" y1="1263.3784" y2="1263.3784"/><polygon fill="#181818" points="483.0461,1320.7339,487.0461,1330.7339,491.0461,1320.7339,487.0461,1324.7339" style="stroke:#181818;stroke-width:1;stroke-linejoin:miter;stroke-miterlimit:10;"/><line style="stroke:#181818;stroke-width:1;" x1="487.0461" x2="487.0461" y1="1263.3784" y2="1393.687"/><line style="stroke:#181818;stroke-width:1;" x1="487.0461" x2="381.6809" y1="1393.687" y2="1393.687"/><polygon fill="#181818" points="391.6809,1389.687,381.6809,1393.687,391.6809,1397.687,387.6809,1393.687" style="stroke:#181818;stroke-width:1;stroke-linejoin:miter;stroke-miterlimit:10;"/><line style="stroke:#181818;stroke-width:1;" x1="369.6809" x2="369.6809" y1="1361.687" y2="1381.687"/><polygon fill="#181818" points="365.6809,1371.687,369.6809,1381.687,373.6809,1371.687,369.6809,1375.687" style="stroke:#181818;stroke-width:1;stroke-linejoin:miter;stroke-miterlimit:10;"/><line style="stroke:#181818;stroke-width:1;" x1="369.6809" x2="369.6809" y1="1231.3784" y2="1251.3784"/><polygon fill="#181818" points="365.6809,1241.3784,369.6809,1251.3784,373.6809,1241.3784,369.6809,1245.3784" style="stroke:#181818;stroke-width:1;stroke-linejoin:miter;stroke-miterlimit:10;"/><line style="stroke:#181818;stroke-width:1;" x1="369.6809" x2="369.6809" y1="1405.687" y2="1425.687"/><polygon fill="#181818" points="365.6809,1415.687,369.6809,1425.687,373.6809,1415.687,369.6809,1419.687" style="stroke:#181818;stroke-width:1;stroke-linejoin:miter;stroke-miterlimit:10;"/><line style="stroke:#181818;stroke-width:1;" x1="369.6809" x2="369.6809" y1="1473.6245" y2="1493.6245"/><polygon fill="#181818" points="365.6809,1483.6245,369.6809,1493.6245,373.6809,1483.6245,369.6809,1487.6245" style="stroke:#181818;stroke-width:1;stroke-linejoin:miter;stroke-miterlimit:10;"/><line style="stroke:#181818;stroke-width:1;" x1="369.6809" x2="369.6809" y1="1527.5933" y2="1547.5933"/><polygon fill="#181818" points="365.6809,1537.5933,369.6809,1547.5933,373.6809,1537.5933,369.6809,1541.5933" style="stroke:#181818;stroke-width:1;stroke-linejoin:miter;stroke-miterlimit:10;"/><line style="stroke:#181818;stroke-width:1;" x1="369.6809" x2="369.6809" y1="1581.562" y2="1601.562"/><polygon fill="#181818" points="365.6809,1591.562,369.6809,1601.562,373.6809,1591.562,369.6809,1595.562" style="stroke:#181818;stroke-width:1;stroke-linejoin:miter;stroke-miterlimit:10;"/><g class="legend" data-source-line="46"><rect fill="none" height="156.6719" rx="7.5" ry="7.5" style="stroke:#000000;stroke-width:1;" width="571.4834" x="88.835" y="1656.562"/><text fill="#000000" font-family="sans-serif" font-size="14" font-weight="700" lengthAdjust="spacing" textLength="151.9082" x="93.835" y="1674.5571">Perbandingan alur:</text><text fill="#000000" font-family="sans-serif" font-size="14" lengthAdjust="spacing" textLength="394.8643" x="250.1934" y="1674.5571">pada alur lama, beban penyaringan sepenuhnya berada</text><text fill="#000000" font-family="sans-serif" font-size="14" lengthAdjust="spacing" textLength="561.4834" x="93.835" y="1690.854">pada penyewa dan diulang manual (loop "atur filter -&gt; telusuri -&gt; bandingkan")</text><text fill="#000000" font-family="sans-serif" font-size="14" lengthAdjust="spacing" textLength="538.3301" x="93.835" y="1707.1509">hingga ditemukan kandidat yang sesuai, dan pengguna baru memulai tanpa</text><text fill="#000000" font-family="sans-serif" font-size="14" lengthAdjust="spacing" textLength="516.0996" x="93.835" y="1723.4478">panduan sama sekali (cold-start murni). Pada alur baru, langkah tersebut</text><text fill="#000000" font-family="sans-serif" font-size="14" lengthAdjust="spacing" textLength="515.0811" x="93.835" y="1739.7446">digantikan modul rekomendasi: profil diisi sekali di awal, sistem otomatis</text><text fill="#000000" font-family="sans-serif" font-size="14" lengthAdjust="spacing" textLength="515.0059" x="93.835" y="1756.0415">memilih strategi content-based (cold-start) atau hybrid (warm-start), dan</text><text fill="#000000" font-family="sans-serif" font-size="14" lengthAdjust="spacing" textLength="553.5947" x="93.835" y="1772.3384">penyewa langsung menerima daftar Top-N yang personal -- memangkas siklus</text><text fill="#000000" font-family="sans-serif" font-size="14" lengthAdjust="spacing" textLength="453.1338" x="93.835" y="1788.6353">atur-filter-berulang yang menjadi akar masalah pada identifikasi</text><text fill="#000000" font-family="sans-serif" font-size="14" lengthAdjust="spacing" textLength="202.1113" x="93.835" y="1804.9321">permasalahan Subbab 3.4.1.</text></g><?plantuml-src hLPDRzj64BthLmnSe91GoORj6YZir8LimwsHf3Ni1BtuCXHNucR99R4VTeIY_xrlTacBTd98W9ueSMTdtxnvRvP1XrhHSXNqemvRkjAySTpGWcwLAzYMscxOqhAEZcvTwvMdZakcjt_TlxtviAJf1HTqStCp9on5rdGVYmAlZlP_sJ-QJRpHjcD9MF3AR5mRRNdPrgsZloiTr6XzG73nAkw7wwFha-lhhqMshbIkZpe-ERcwkXX5tR8BEkZMVclOL_5Dkc6TzfRlFjxHk-Nx9IqMz9vjv7fEWP68d39jesp9NjFKWJB37goLx3Jzpat1Zev1nnxzCo7o0JdnFBrLTgkUc8fecBYhjP7zdR8hxCDsq_epn3dLAPODeoqSq8-rheDor2Ge3tPQjv9WJXMx3GEQxjISrdXLwy1-TfPJt6iVL0FWJQThWsCgYUYJ8Kl9Qm0ab1EuGbkvOOesH8CEDv45tsOJBG_v1aX1rT575FmZzRf1yWURiti0nawNVkoAegTAGttJFt9GLf1HHGonOllRZBIdQT0bcndPDj1qoxCnSrKiejt8aJZvKMdA53nOet1QWyADi4ZJGhbOizrGeMiG3gWDTR4dvJbTesesKJZ1PeKEIXDGltiLXOPkGL6XyJXB7MsxoRzVYkLYUVSnYQKjOqrt8v4ysyVdRe0vmFisWVHxvM2zfkbzBBaIRYqUMWJaMZGJ3xLMJbclmMEeb1KMKFSij-rc5-cLuLfJgOcVaf0Qbgxv9pxeb57k4yIq0N3bvW-WPBE1S-oS1ha1ReWUSfELEZ6gQe-kUa4cns6lNlTmRtlvaC-uezt2F_e9L0RI5XfayngoSBXgwtAHcEaBk5Ehjaby2kFtoZtgbIAu5eeWRrfe-R95FXiM5-nLcTtObppbkgkOVgN3rtZbh2TspVUULMqBfqjap9a_q-K5_KJJmqNwFvCNrsSZBhxquOUsM_mfSdq09SXRmh_EjnQzyNamk6VplH1ahIjmLwh0g4padZqt6ag3LYxRLMiGcMRws6UPxEokJ4PstKkBmqMQ74kd3ypWhPgr5Sse1W0DsWYY0-zQ-M3pz1ZFI4baOa2TinUSVAUl_rVpraeq3YbkAZ7Vc-BynGt8k05FtnmKv_d-axyelO4r2bMaGr6Dox4Umyt6IfIDIX6EV6bNrwCevNBGUIBbyKsOtcr7U-F1lZZV3LNytatLFUbBbVo6D51HAjl8EhYdf9uyJEVfg44rIE6YK82JTRww4Z9RHa4jaxwV1TETtQY9pkhPFgxAeMv90_-pWAc0qNcH4bAL6kK7BMYQDFD6JJyTl5TgcL8lXmwcIBP36ze60lD8rgH6LsWG9AUWXbLlvoBPUGHnXlkG8_KMd8xic-gN6WUh0BCNqm8KDDX8Az9rbysNc1jS9vC065AL7lWCMe5Kqg55xj3Y-Lf96v7p4qj1HkvFV07KCk24DGtB1RrEypkXSVqoYEe_c8xtVzu_t9-81BCI9_y1?></g></svg>