<svg xmlns="http://www.w3.org/2000/svg" xmlns:xlink="http://www.w3.org/1999/xlink" contentStyleType="text/css" data-diagram-type="ACTIVITY" height="762px" preserveAspectRatio="none" style="width:828px;height:762px;background:#FFFFFF;" version="1.1" viewBox="0 0 828 762" width="828px" zoomAndPan="magnify"><?plantuml 1.2026.6?><defs/><g><g class="title" data-source-line="1"><text fill="#000000" font-family="sans-serif" font-size="14" font-weight="700" lengthAdjust="spacing" textLength="611.2354" x="107.5276" y="32.9951">Gambar 4.11 - Activity Diagram UC-08 Melihat Detail Rekomendasi Pengguna</text></g><rect fill="none" height="20.9531" style="stroke:none;stroke-width:1;" width="781.2905" x="20" y="55.042"/><ellipse cx="155.2793" cy="90.9951" fill="#222222" rx="10" ry="10" style="stroke:#222222;stroke-width:1;"/><rect fill="#FFFFFF" height="47.9375" rx="12.5" ry="12.5" style="stroke:#000000;stroke-width:0.5;" width="232.7305" x="38.9141" y="120.9951"/><text fill="#000000" font-family="sans-serif" font-size="12" lengthAdjust="spacing" textLength="86.25" x="48.9141" y="142.1338">Buka halaman</text><text fill="#000000" font-family="sans-serif" font-size="12" lengthAdjust="spacing" textLength="212.7305" x="48.9141" y="156.1025">Kelola Pengguna pada panel admin</text><rect fill="#FFFFFF" height="47.9375" rx="12.5" ry="12.5" style="stroke:#000000;stroke-width:0.5;" width="174.5059" x="68.0264" y="188.9326"/><text fill="#000000" font-family="sans-serif" font-size="12" lengthAdjust="spacing" textLength="154.5059" x="78.0264" y="210.0713">Pilih salah satu pengguna</text><text fill="#000000" font-family="sans-serif" font-size="12" lengthAdjust="spacing" textLength="135.1699" x="78.0264" y="224.04">untuk dilihat detailnya</text><rect fill="#FFFFFF" height="47.9375" rx="12.5" ry="12.5" style="stroke:#000000;stroke-width:0.5;" width="258.5586" x="26" y="651.23"/><text fill="#000000" font-family="sans-serif" font-size="12" lengthAdjust="spacing" textLength="109.9219" x="36" y="672.3687">Periksa hasil trace</text><text fill="#000000" font-family="sans-serif" font-size="12" lengthAdjust="spacing" textLength="238.5586" x="36" y="686.3374">untuk pengujian/transparansi algoritma</text><ellipse cx="155.2793" cy="730.1675" fill="none" rx="11" ry="11" style="stroke:#222222;stroke-width:1;"/><ellipse cx="155.2793" cy="730.1675" fill="#222222" rx="6" ry="6" style="stroke:#222222;stroke-width:1;"/><line style="stroke:#000000;stroke-width:1.5;" x1="20" x2="20" y1="55.042" y2="741.1675"/><rect fill="#FFFFFF" height="61.9063" rx="12.5" ry="12.5" style="stroke:#000000;stroke-width:0.5;" width="174.8223" x="457.583" y="256.8701"/><text fill="#000000" font-family="sans-serif" font-size="12" lengthAdjust="spacing" textLength="103.4414" x="467.583" y="278.0088">Ambil data profil,</text><text fill="#000000" font-family="sans-serif" font-size="12" lengthAdjust="spacing" textLength="154.8223" x="467.583" y="291.9775">riwayat interaksi, dan kos</text><text fill="#000000" font-family="sans-serif" font-size="12" lengthAdjust="spacing" textLength="147.2578" x="467.583" y="305.9463">milik pengguna tersebut</text><polygon fill="#FFFFFF" points="544.9941,355.48,556.9941,367.48,544.9941,379.48,532.9941,367.48,544.9941,355.48" style="stroke:#000000;stroke-width:0.5;stroke-linejoin:miter;stroke-miterlimit:10;"/><text fill="#000000" font-family="sans-serif" font-size="11" lengthAdjust="spacing" textLength="90.5029" x="550.9941" y="340.0811">Peran pengguna</text><text fill="#000000" font-family="sans-serif" font-size="11" lengthAdjust="spacing" textLength="80.6792" x="550.9941" y="352.8857">adalah "user"?</text><text fill="#000000" font-family="sans-serif" font-size="11" lengthAdjust="spacing" textLength="22.043" x="510.9512" y="364.8857">[Ya]</text><text fill="#000000" font-family="sans-serif" font-size="11" lengthAdjust="spacing" textLength="126.3281" x="556.9941" y="364.8857">[Tidak -- Admin/owner]</text><rect fill="#FFFFFF" height="61.9063" rx="12.5" ry="12.5" style="stroke:#000000;stroke-width:0.5;" width="218.2461" x="305.6533" y="389.48"/><text fill="#000000" font-family="sans-serif" font-size="12" lengthAdjust="spacing" textLength="198.2461" x="315.6533" y="410.6187">Panggil RecommendationService</text><text fill="#000000" font-family="sans-serif" font-size="12" lengthAdjust="spacing" textLength="161.8652" x="315.6533" y="424.5874">::getRecommendations() --</text><text fill="#000000" font-family="sans-serif" font-size="12" lengthAdjust="spacing" textLength="161.8066" x="315.6533" y="438.5562">sama persis dengan UC-03</text><rect fill="#FFFFFF" height="61.9063" rx="12.5" ry="12.5" style="stroke:#000000;stroke-width:0.5;" width="214.3613" x="307.5957" y="471.3862"/><text fill="#000000" font-family="sans-serif" font-size="12" lengthAdjust="spacing" textLength="159.3926" x="317.5957" y="492.5249">Hitung Top-10 kos beserta</text><text fill="#000000" font-family="sans-serif" font-size="12" lengthAdjust="spacing" textLength="187.6992" x="317.5957" y="506.4937">Skor_CB, Skor_CF, Skor_hybrid,</text><text fill="#000000" font-family="sans-serif" font-size="12" lengthAdjust="spacing" textLength="194.3613" x="317.5957" y="520.4624">dan status cold-start/warm-start</text><rect fill="#FFFFFF" height="47.9375" rx="12.5" ry="12.5" style="stroke:#000000;stroke-width:0.5;" width="240.4355" x="294.5586" y="553.2925"/><text fill="#000000" font-family="sans-serif" font-size="12" lengthAdjust="spacing" textLength="220.4355" x="304.5586" y="574.4312">Tampilkan halaman detail pengguna</text><text fill="#000000" font-family="sans-serif" font-size="12" lengthAdjust="spacing" textLength="213.2988" x="304.5586" y="588.3999">lengkap dengan trace rekomendasi</text><rect fill="#FFFFFF" height="61.9063" rx="12.5" ry="12.5" style="stroke:#000000;stroke-width:0.5;" width="240.4355" x="554.9941" y="389.48"/><text fill="#000000" font-family="sans-serif" font-size="12" lengthAdjust="spacing" textLength="220.4355" x="564.9941" y="410.6187">Tampilkan halaman detail pengguna</text><text fill="#000000" font-family="sans-serif" font-size="12" lengthAdjust="spacing" textLength="151.0781" x="564.9941" y="424.5874">tanpa trace rekomendasi</text><text fill="#000000" font-family="sans-serif" font-size="12" lengthAdjust="spacing" textLength="140.6133" x="564.9941" y="438.5562">(bukan calon penyewa)</text><polygon fill="#FFFFFF" points="544.9941,607.23,556.9941,619.23,544.9941,631.23,532.9941,619.23,544.9941,607.23" style="stroke:#000000;stroke-width:0.5;stroke-linejoin:miter;stroke-miterlimit:10;"/><line style="stroke:#000000;stroke-width:1.5;" x1="288.5586" x2="288.5586" y1="55.042" y2="741.1675"/><line style="stroke:#000000;stroke-width:1.5;" x1="799.4297" x2="799.4297" y1="55.042" y2="741.1675"/><line style="stroke:#000000;stroke-width:1;" x1="155.2793" x2="155.2793" y1="100.9951" y2="120.9951"/><polygon fill="#000000" points="151.2793,110.9951,155.2793,120.9951,159.2793,110.9951,155.2793,114.9951" style="stroke:#000000;stroke-width:1;stroke-linejoin:miter;stroke-miterlimit:10;"/><line style="stroke:#000000;stroke-width:1;" x1="155.2793" x2="155.2793" y1="168.9326" y2="188.9326"/><polygon fill="#000000" points="151.2793,178.9326,155.2793,188.9326,159.2793,178.9326,155.2793,182.9326" style="stroke:#000000;stroke-width:1;stroke-linejoin:miter;stroke-miterlimit:10;"/><line style="stroke:#000000;stroke-width:1;" x1="155.2793" x2="155.2793" y1="699.1675" y2="719.1675"/><polygon fill="#000000" points="151.2793,709.1675,155.2793,719.1675,159.2793,709.1675,155.2793,713.1675" style="stroke:#000000;stroke-width:1;stroke-linejoin:miter;stroke-miterlimit:10;"/><line style="stroke:#000000;stroke-width:1;" x1="414.7764" x2="414.7764" y1="451.3862" y2="471.3862"/><polygon fill="#000000" points="410.7764,461.3862,414.7764,471.3862,418.7764,461.3862,414.7764,465.3862" style="stroke:#000000;stroke-width:1;stroke-linejoin:miter;stroke-miterlimit:10;"/><line style="stroke:#000000;stroke-width:1;" x1="414.7764" x2="414.7764" y1="533.2925" y2="553.2925"/><polygon fill="#000000" points="410.7764,543.2925,414.7764,553.2925,418.7764,543.2925,414.7764,547.2925" style="stroke:#000000;stroke-width:1;stroke-linejoin:miter;stroke-miterlimit:10;"/><line style="stroke:#000000;stroke-width:1;" x1="532.9941" x2="414.7764" y1="367.48" y2="367.48"/><line style="stroke:#000000;stroke-width:1;" x1="414.7764" x2="414.7764" y1="367.48" y2="389.48"/><polygon fill="#000000" points="410.7764,379.48,414.7764,389.48,418.7764,379.48,414.7764,383.48" style="stroke:#000000;stroke-width:1;stroke-linejoin:miter;stroke-miterlimit:10;"/><line style="stroke:#000000;stroke-width:1;" x1="556.9941" x2="675.2119" y1="367.48" y2="367.48"/><line style="stroke:#000000;stroke-width:1;" x1="675.2119" x2="675.2119" y1="367.48" y2="389.48"/><polygon fill="#000000" points="671.2119,379.48,675.2119,389.48,679.2119,379.48,675.2119,383.48" style="stroke:#000000;stroke-width:1;stroke-linejoin:miter;stroke-miterlimit:10;"/><line style="stroke:#000000;stroke-width:1;" x1="414.7764" x2="414.7764" y1="601.23" y2="619.23"/><line style="stroke:#000000;stroke-width:1;" x1="414.7764" x2="532.9941" y1="619.23" y2="619.23"/><polygon fill="#000000" points="522.9941,615.23,532.9941,619.23,522.9941,623.23,526.9941,619.23" style="stroke:#000000;stroke-width:1;stroke-linejoin:miter;stroke-miterlimit:10;"/><line style="stroke:#000000;stroke-width:1;" x1="675.2119" x2="675.2119" y1="451.3862" y2="619.23"/><line style="stroke:#000000;stroke-width:1;" x1="675.2119" x2="556.9941" y1="619.23" y2="619.23"/><polygon fill="#000000" points="566.9941,615.23,556.9941,619.23,566.9941,623.23,562.9941,619.23" style="stroke:#000000;stroke-width:1;stroke-linejoin:miter;stroke-miterlimit:10;"/><line style="stroke:#000000;stroke-width:1;" x1="544.9941" x2="544.9941" y1="318.7764" y2="355.48"/><polygon fill="#000000" points="540.9941,345.48,544.9941,355.48,548.9941,345.48,544.9941,349.48" style="stroke:#000000;stroke-width:1;stroke-linejoin:miter;stroke-miterlimit:10;"/><line style="stroke:#000000;stroke-width:1;" x1="155.2793" x2="155.2793" y1="236.8701" y2="241.8701"/><line style="stroke:#000000;stroke-width:1;" x1="155.2793" x2="544.9941" y1="241.8701" y2="241.8701"/><line style="stroke:#000000;stroke-width:1;" x1="544.9941" x2="544.9941" y1="241.8701" y2="256.8701"/><polygon fill="#000000" points="540.9941,246.8701,544.9941,256.8701,548.9941,246.8701,544.9941,250.8701" style="stroke:#000000;stroke-width:1;stroke-linejoin:miter;stroke-miterlimit:10;"/><line style="stroke:#000000;stroke-width:1;" x1="544.9941" x2="544.9941" y1="631.23" y2="636.23"/><line style="stroke:#000000;stroke-width:1;" x1="544.9941" x2="155.2793" y1="636.23" y2="636.23"/><line style="stroke:#000000;stroke-width:1;" x1="155.2793" x2="155.2793" y1="636.23" y2="651.23"/><polygon fill="#000000" points="151.2793,641.23,155.2793,651.23,159.2793,641.23,155.2793,645.23" style="stroke:#000000;stroke-width:1;stroke-linejoin:miter;stroke-miterlimit:10;"/><text fill="#000000" font-family="sans-serif" font-size="18" lengthAdjust="spacing" textLength="57.6826" x="125.438" y="71.75">Admin</text><text fill="#000000" font-family="sans-serif" font-size="18" lengthAdjust="spacing" textLength="61.4707" x="513.2588" y="71.75">Sistem</text><?plantuml-src ZLJ1Qjj04BthAuRqOaFS9BI78X-AxP0MIekfNKgfIXb96tcgtLcnEuenvECxApk9cq1I7yIYVVFcpRmd2uary05TYG7UlhwuW0dCAg4RaXrS4ZO17NnRJCxVmMTZQOC2bqQGB7mrhNU6Qum4IyDDqpDciINkCDMKMBLDy3tN2szzWEyR4dDql_1Sav3dbUnKGKtezCqHO1Q2t-vhvrR9ZgwM66IedVjGc_0Iw0KbgoqvYsoU8_lYnJpcUNMblyNYCUePbhl5lgJe7lU4AxkTrOxuDekYusNvl6yHDcZH8HVyoLXlyTuDwB1E3pOMC9LDitn9QY94hKXFwQ4xW0lkMVfMZTYxN0ykymwdsdH5KOoxpVAPAzNw6aLvWxycUrfme2tkj89OJC0sqga265eV2tRArjxt00L4K_QYd7GDewNY-KY1oaswJlfemidxCSZ6C8n-_i1VummWNw82X-HLtWtH6_9ZmWrLfk0yRupyUnT7OvXC2eww7-qJ8aKTZ1ljcZBzPffeFvBqtC3QTvEByoGRIgC2H0MjMXz-B-Qdi3zS7GwRNHcerj7JdEg4z14gR-l9uChP5eFR7mV-DRgERAlGWr67tHuDRlNKOdUdJG9M1iB31pRDZ8r6Lx6c6biT2OOOdFajcx1Vpdzq4THyFIKlU5JsgR12wmSxTcQBO-sfN-ZrG-HojOlQcF8MbNVWkKjDQjB_8UGpVSqnnPZrVm5jumE9qn15yLts5m00?></g></svg>