<svg xmlns="http://www.w3.org/2000/svg" xmlns:xlink="http://www.w3.org/1999/xlink" contentStyleType="text/css" data-diagram-type="ACTIVITY" height="797px" preserveAspectRatio="none" style="width:1001px;height:797px;background:#FFFFFF;" version="1.1" viewBox="0 0 1001 797" width="1001px" zoomAndPan="magnify"><?plantuml 1.2026.6?><defs/><g><g class="title" data-source-line="1"><text fill="#000000" font-family="sans-serif" font-size="14" font-weight="700" lengthAdjust="spacing" textLength="455.376" x="272.1353" y="32.9951">Gambar 4.6 - Activity Diagram UC-05 Memberi Rating Kos</text></g><rect fill="none" height="20.9531" style="stroke:none;stroke-width:1;" width="954.6465" x="20" y="55.042"/><ellipse cx="201.9292" cy="90.9951" fill="#222222" rx="10" ry="10" style="stroke:#222222;stroke-width:1;"/><rect fill="#FFFFFF" height="47.9375" rx="12.5" ry="12.5" style="stroke:#000000;stroke-width:0.5;" width="168.1484" x="117.855" y="120.9951"/><text fill="#000000" font-family="sans-serif" font-size="12" lengthAdjust="spacing" textLength="148.1484" x="127.855" y="142.1338">Buka halaman detail kos</text><text fill="#000000" font-family="sans-serif" font-size="12" lengthAdjust="spacing" textLength="46.125" x="127.855" y="156.1025">(UC-04)</text><polygon fill="#FFFFFF" points="201.9292,192.8315,213.9292,204.8315,201.9292,216.8315,189.9292,204.8315,201.9292,192.8315" style="stroke:#000000;stroke-width:0.5;stroke-linejoin:miter;stroke-miterlimit:10;"/><text fill="#000000" font-family="sans-serif" font-size="11" lengthAdjust="spacing" textLength="28.5205" x="207.9292" y="190.2373">Aksi?</text><text fill="#000000" font-family="sans-serif" font-size="11" lengthAdjust="spacing" textLength="66.5586" x="123.3706" y="202.2373">[Beri rating]</text><text fill="#000000" font-family="sans-serif" font-size="11" lengthAdjust="spacing" textLength="85.0352" x="213.9292" y="202.2373">[Tandai favorit]</text><rect fill="#FFFFFF" height="33.9688" rx="12.5" ry="12.5" style="stroke:#000000;stroke-width:0.5;" width="178.4141" x="26" y="226.8315"/><text fill="#000000" font-family="sans-serif" font-size="12" lengthAdjust="spacing" textLength="158.4141" x="36" y="247.9702">Tekan bintang rating (1-5)</text><rect fill="#FFFFFF" height="33.9688" rx="12.5" ry="12.5" style="stroke:#000000;stroke-width:0.5;" width="128.4746" x="224.4141" y="226.8315"/><text fill="#000000" font-family="sans-serif" font-size="12" lengthAdjust="spacing" textLength="108.4746" x="234.4141" y="247.9702">Tekan ikon favorit</text><polygon fill="#FFFFFF" points="201.9292,266.8003,213.9292,278.8003,201.9292,290.8003,189.9292,278.8003,201.9292,266.8003" style="stroke:#000000;stroke-width:0.5;stroke-linejoin:miter;stroke-miterlimit:10;"/><rect fill="#FFFFFF" height="33.9688" rx="12.5" ry="12.5" style="stroke:#000000;stroke-width:0.5;" width="116.5156" x="143.6714" y="677.2227"/><text fill="#000000" font-family="sans-serif" font-size="12" lengthAdjust="spacing" textLength="96.5156" x="153.6714" y="698.3613">Lihat konfirmasi</text><path d="M232.9292,721.1914 L232.9292,744.8906 L212.9292,748.8906 L232.9292,752.8906 L232.9292,776.5898 A0,0 0 0 0 232.9292,776.5898 L579.856,776.5898 A0,0 0 0 0 579.856,776.5898 L579.856,731.1914 L569.856,721.1914 L232.9292,721.1914 A0,0 0 0 0 232.9292,721.1914" fill="#FFFFCC" style="stroke:#000000;stroke-width:0.5;"/><path d="M569.856,721.1914 L569.856,731.1914 L579.856,731.1914 L569.856,721.1914" fill="#FFFFCC" style="stroke:#000000;stroke-width:0.5;"/><text fill="#000000" font-family="sans-serif" font-size="13" lengthAdjust="spacing" textLength="304.8906" x="238.9292" y="738.2583">Jika ini interaksi ber-rating pertama pengguna,</text><text fill="#000000" font-family="sans-serif" font-size="13" lengthAdjust="spacing" textLength="325.9268" x="238.9292" y="753.3911">status berubah dari cold-start menjadi warm-start</text><text fill="#000000" font-family="sans-serif" font-size="13" lengthAdjust="spacing" textLength="238.2402" x="238.9292" y="768.5239">pada perhitungan UC-03 berikutnya.</text><ellipse cx="201.9292" cy="748.8906" fill="none" rx="11" ry="11" style="stroke:#222222;stroke-width:1;"/><ellipse cx="201.9292" cy="748.8906" fill="#222222" rx="6" ry="6" style="stroke:#222222;stroke-width:1;"/><line style="stroke:#000000;stroke-width:1.5;" x1="20" x2="20" y1="55.042" y2="776.5898"/><rect fill="#FFFFFF" height="61.9063" rx="12.5" ry="12.5" style="stroke:#000000;stroke-width:0.5;" width="224.2227" x="669.0132" y="310.8003"/><text fill="#000000" font-family="sans-serif" font-size="12" lengthAdjust="spacing" textLength="164.4434" x="679.0132" y="331.939">Cari baris user_interactions</text><text fill="#000000" font-family="sans-serif" font-size="12" lengthAdjust="spacing" textLength="204.2227" x="679.0132" y="345.9077">untuk pasangan pengguna-kos ini</text><text fill="#000000" font-family="sans-serif" font-size="12" lengthAdjust="spacing" textLength="87.3281" x="679.0132" y="359.8765">(firstOrCreate)</text><polygon fill="#FFFFFF" points="781.1245,409.4102,793.1245,421.4102,781.1245,433.4102,769.1245,421.4102,781.1245,409.4102" style="stroke:#000000;stroke-width:0.5;stroke-linejoin:miter;stroke-miterlimit:10;"/><text fill="#000000" font-family="sans-serif" font-size="11" lengthAdjust="spacing" textLength="78.6221" x="787.1245" y="394.0112">Baris interaksi</text><text fill="#000000" font-family="sans-serif" font-size="11" lengthAdjust="spacing" textLength="63.1963" x="787.1245" y="406.8159">sudah ada?</text><text fill="#000000" font-family="sans-serif" font-size="11" lengthAdjust="spacing" textLength="22.043" x="747.0815" y="418.8159">[Ya]</text><text fill="#000000" font-family="sans-serif" font-size="11" lengthAdjust="spacing" textLength="43.6401" x="793.1245" y="418.8159">[Belum]</text><rect fill="#FFFFFF" height="47.9375" rx="12.5" ry="12.5" style="stroke:#000000;stroke-width:0.5;" width="181.5723" x="590.856" y="443.4102"/><text fill="#000000" font-family="sans-serif" font-size="12" lengthAdjust="spacing" textLength="161.5723" x="600.856" y="464.5488">Perbarui nilai rating/favorit</text><text fill="#000000" font-family="sans-serif" font-size="12" lengthAdjust="spacing" textLength="122.877" x="600.856" y="478.5176">pada baris yang ada</text><rect fill="#FFFFFF" height="47.9375" rx="12.5" ry="12.5" style="stroke:#000000;stroke-width:0.5;" width="176.3574" x="792.4282" y="443.4102"/><text fill="#000000" font-family="sans-serif" font-size="12" lengthAdjust="spacing" textLength="148.1895" x="802.4282" y="464.5488">Buat baris interaksi baru</text><text fill="#000000" font-family="sans-serif" font-size="12" lengthAdjust="spacing" textLength="156.3574" x="802.4282" y="478.5176">dengan nilai rating/favorit</text><polygon fill="#FFFFFF" points="781.1245,497.3477,793.1245,509.3477,781.1245,521.3477,769.1245,509.3477,781.1245,497.3477" style="stroke:#000000;stroke-width:0.5;stroke-linejoin:miter;stroke-miterlimit:10;"/><rect fill="#FFFFFF" height="47.9375" rx="12.5" ry="12.5" style="stroke:#000000;stroke-width:0.5;" width="123.3242" x="719.4624" y="541.3477"/><text fill="#000000" font-family="sans-serif" font-size="12" lengthAdjust="spacing" textLength="97.5703" x="729.4624" y="562.4863">Simpan ke tabel</text><text fill="#000000" font-family="sans-serif" font-size="12" lengthAdjust="spacing" textLength="103.3242" x="729.4624" y="576.4551">user_interactions</text><rect fill="#FFFFFF" height="47.9375" rx="12.5" ry="12.5" style="stroke:#000000;stroke-width:0.5;" width="149.3984" x="706.4253" y="609.2852"/><text fill="#000000" font-family="sans-serif" font-size="12" lengthAdjust="spacing" textLength="129.3984" x="716.4253" y="630.4238">Tampilkan konfirmasi</text><text fill="#000000" font-family="sans-serif" font-size="12" lengthAdjust="spacing" textLength="100.2363" x="716.4253" y="644.3926">rating tersimpan</text><line style="stroke:#000000;stroke-width:1.5;" x1="584.856" x2="584.856" y1="55.042" y2="776.5898"/><line style="stroke:#000000;stroke-width:1.5;" x1="972.7856" x2="972.7856" y1="55.042" y2="776.5898"/><line style="stroke:#000000;stroke-width:1;" x1="201.9292" x2="201.9292" y1="100.9951" y2="120.9951"/><polygon fill="#000000" points="197.9292,110.9951,201.9292,120.9951,205.9292,110.9951,201.9292,114.9951" style="stroke:#000000;stroke-width:1;stroke-linejoin:miter;stroke-miterlimit:10;"/><line style="stroke:#000000;stroke-width:1;" x1="189.9292" x2="115.207" y1="204.8315" y2="204.8315"/><line style="stroke:#000000;stroke-width:1;" x1="115.207" x2="115.207" y1="204.8315" y2="226.8315"/><polygon fill="#000000" points="111.207,216.8315,115.207,226.8315,119.207,216.8315,115.207,220.8315" style="stroke:#000000;stroke-width:1;stroke-linejoin:miter;stroke-miterlimit:10;"/><line style="stroke:#000000;stroke-width:1;" x1="213.9292" x2="288.6514" y1="204.8315" y2="204.8315"/><line style="stroke:#000000;stroke-width:1;" x1="288.6514" x2="288.6514" y1="204.8315" y2="226.8315"/><polygon fill="#000000" points="284.6514,216.8315,288.6514,226.8315,292.6514,216.8315,288.6514,220.8315" style="stroke:#000000;stroke-width:1;stroke-linejoin:miter;stroke-miterlimit:10;"/><line style="stroke:#000000;stroke-width:1;" x1="115.207" x2="115.207" y1="260.8003" y2="278.8003"/><line style="stroke:#000000;stroke-width:1;" x1="115.207" x2="189.9292" y1="278.8003" y2="278.8003"/><polygon fill="#000000" points="179.9292,274.8003,189.9292,278.8003,179.9292,282.8003,183.9292,278.8003" style="stroke:#000000;stroke-width:1;stroke-linejoin:miter;stroke-miterlimit:10;"/><line style="stroke:#000000;stroke-width:1;" x1="288.6514" x2="288.6514" y1="260.8003" y2="278.8003"/><line style="stroke:#000000;stroke-width:1;" x1="288.6514" x2="213.9292" y1="278.8003" y2="278.8003"/><polygon fill="#000000" points="223.9292,274.8003,213.9292,278.8003,223.9292,282.8003,219.9292,278.8003" style="stroke:#000000;stroke-width:1;stroke-linejoin:miter;stroke-miterlimit:10;"/><line style="stroke:#000000;stroke-width:1;" x1="201.9292" x2="201.9292" y1="168.9326" y2="192.8315"/><polygon fill="#000000" points="197.9292,182.8315,201.9292,192.8315,205.9292,182.8315,201.9292,186.8315" style="stroke:#000000;stroke-width:1;stroke-linejoin:miter;stroke-miterlimit:10;"/><line style="stroke:#000000;stroke-width:1;" x1="201.9292" x2="201.9292" y1="711.1914" y2="737.8906"/><polygon fill="#000000" points="197.9292,727.8906,201.9292,737.8906,205.9292,727.8906,201.9292,731.8906" style="stroke:#000000;stroke-width:1;stroke-linejoin:miter;stroke-miterlimit:10;"/><line style="stroke:#000000;stroke-width:1;" x1="769.1245" x2="681.6421" y1="421.4102" y2="421.4102"/><line style="stroke:#000000;stroke-width:1;" x1="681.6421" x2="681.6421" y1="421.4102" y2="443.4102"/><polygon fill="#000000" points="677.6421,433.4102,681.6421,443.4102,685.6421,433.4102,681.6421,437.4102" style="stroke:#000000;stroke-width:1;stroke-linejoin:miter;stroke-miterlimit:10;"/><line style="stroke:#000000;stroke-width:1;" x1="793.1245" x2="880.6069" y1="421.4102" y2="421.4102"/><line style="stroke:#000000;stroke-width:1;" x1="880.6069" x2="880.6069" y1="421.4102" y2="443.4102"/><polygon fill="#000000" points="876.6069,433.4102,880.6069,443.4102,884.6069,433.4102,880.6069,437.4102" style="stroke:#000000;stroke-width:1;stroke-linejoin:miter;stroke-miterlimit:10;"/><line style="stroke:#000000;stroke-width:1;" x1="681.6421" x2="681.6421" y1="491.3477" y2="509.3477"/><line style="stroke:#000000;stroke-width:1;" x1="681.6421" x2="769.1245" y1="509.3477" y2="509.3477"/><polygon fill="#000000" points="759.1245,505.3477,769.1245,509.3477,759.1245,513.3477,763.1245,509.3477" style="stroke:#000000;stroke-width:1;stroke-linejoin:miter;stroke-miterlimit:10;"/><line style="stroke:#000000;stroke-width:1;" x1="880.6069" x2="880.6069" y1="491.3477" y2="509.3477"/><line style="stroke:#000000;stroke-width:1;" x1="880.6069" x2="793.1245" y1="509.3477" y2="509.3477"/><polygon fill="#000000" points="803.1245,505.3477,793.1245,509.3477,803.1245,513.3477,799.1245,509.3477" style="stroke:#000000;stroke-width:1;stroke-linejoin:miter;stroke-miterlimit:10;"/><line style="stroke:#000000;stroke-width:1;" x1="781.1245" x2="781.1245" y1="372.7065" y2="409.4102"/><polygon fill="#000000" points="777.1245,399.4102,781.1245,409.4102,785.1245,399.4102,781.1245,403.4102" style="stroke:#000000;stroke-width:1;stroke-linejoin:miter;stroke-miterlimit:10;"/><line style="stroke:#000000;stroke-width:1;" x1="781.1245" x2="781.1245" y1="521.3477" y2="541.3477"/><polygon fill="#000000" points="777.1245,531.3477,781.1245,541.3477,785.1245,531.3477,781.1245,535.3477" style="stroke:#000000;stroke-width:1;stroke-linejoin:miter;stroke-miterlimit:10;"/><line style="stroke:#000000;stroke-width:1;" x1="781.1245" x2="781.1245" y1="589.2852" y2="609.2852"/><polygon fill="#000000" points="777.1245,599.2852,781.1245,609.2852,785.1245,599.2852,781.1245,603.2852" style="stroke:#000000;stroke-width:1;stroke-linejoin:miter;stroke-miterlimit:10;"/><line style="stroke:#000000;stroke-width:1;" x1="201.9292" x2="201.9292" y1="290.8003" y2="295.8003"/><line style="stroke:#000000;stroke-width:1;" x1="201.9292" x2="781.1245" y1="295.8003" y2="295.8003"/><line style="stroke:#000000;stroke-width:1;" x1="781.1245" x2="781.1245" y1="295.8003" y2="310.8003"/><polygon fill="#000000" points="777.1245,300.8003,781.1245,310.8003,785.1245,300.8003,781.1245,304.8003" style="stroke:#000000;stroke-width:1;stroke-linejoin:miter;stroke-miterlimit:10;"/><line style="stroke:#000000;stroke-width:1;" x1="781.1245" x2="781.1245" y1="657.2227" y2="662.2227"/><line style="stroke:#000000;stroke-width:1;" x1="781.1245" x2="201.9292" y1="662.2227" y2="662.2227"/><line style="stroke:#000000;stroke-width:1;" x1="201.9292" x2="201.9292" y1="662.2227" y2="677.2227"/><polygon fill="#000000" points="197.9292,667.2227,201.9292,677.2227,205.9292,667.2227,201.9292,671.2227" style="stroke:#000000;stroke-width:1;stroke-linejoin:miter;stroke-miterlimit:10;"/><text fill="#000000" font-family="sans-serif" font-size="18" lengthAdjust="spacing" textLength="90.0352" x="257.4104" y="71.75">Pengguna</text><text fill="#000000" font-family="sans-serif" font-size="18" lengthAdjust="spacing" textLength="61.4707" x="748.0854" y="71.75">Sistem</text><?plantuml-src XL9TRnCn47o_Nx4IBub42eYMX-G1zGw1n6VL52544Dh4csIvitsorwqYvSUplbpI451xRsVFZcTcHrWQWdTevnZW_EmLZE1o8NpBie4tZAk05hvMe-SNy8did0B3DGgx5NpmiOWrknOpP8wBUXLySgRoZG_mRSr2H_ULTuQ5lPlAHjypZ5PFZW2N8VYxtMpPADdHrHK6wMPB7mo5nq2FA9dUiMtGqKDadxtGAS-Jj_fLrIdg0PPzZeyfEk3-uIgsL-HMg-HmMqHHXyMuJ3N26XkqwC2G83TG-pXpWxoby-6au2KCBkl8huSWQt8m-57cjOLkRJ-71S3uXcgTdhCJr4tkRc3mOdIXuzH4qfaRT0OPbdZh0yln6DVUxSyLhdjTgj0fHo6xBSOLwcDQ9ewG8eLV-WW5NEJLgCha9DNGOjI7bQljxOtK0h1ZjR7a4ELBg0AXK6-dxEXsJEfivc8ok0OqU6_oE-v4Nb7GrnE3umRtjf_rUcSQkS5UtYQRrz-3vvAQP7SiPKBfOOTdyt-QEKETzF_Hx-COJzcsYga91EVKgE_JA2R5-0PjoqsEL1DLsnQpjNuRYemToUIl5em_ybgLtGzCj1Y-BGgdPOJ0gxMe_FUi9T4uZxLJ6FNKBGNH-Xp2VweJsYv9CQFIN9CrUOaBtvXHLpkmv7wZORZ3O7T7EjD5gMHQvzH5aXluCdDmdSHjy2p70LbPyGS0?></g></svg>