<svg xmlns="http://www.w3.org/2000/svg" xmlns:xlink="http://www.w3.org/1999/xlink" contentStyleType="text/css" data-diagram-type="ACTIVITY" height="2186px" preserveAspectRatio="none" style="width:1370px;height:2186px;background:#FFFFFF;" version="1.1" viewBox="0 0 1370 2186" width="1370px" zoomAndPan="magnify"><?plantuml 1.2026.6?><defs/><g><g class="title" data-source-line="1"><text fill="#000000" font-family="sans-serif" font-size="14" font-weight="700" lengthAdjust="spacing" textLength="386.7842" x="491.0969" y="32.9951">Activity Diagram - Proses Booking hingga Ulasan</text></g><rect fill="none" height="20.9531" style="stroke:none;stroke-width:1;" width="1323.978" x="20" y="55.042"/><ellipse cx="165.3389" cy="90.9951" fill="#222222" rx="10" ry="10" style="stroke:#222222;stroke-width:1;"/><rect fill="#F1F1F1" height="33.9688" rx="12.5" ry="12.5" style="stroke:#181818;stroke-width:0.5;" width="113.2578" x="108.71" y="120.9951"/><text fill="#000000" font-family="sans-serif" font-size="12" lengthAdjust="spacing" textLength="93.2578" x="118.71" y="142.1338">Cari &amp; filter kos</text><path d="M319.5459,171.2334 L319.5459,194.9326 L299.5459,198.9326 L319.5459,202.9326 L319.5459,226.6318 A0,0 0 0 0 319.5459,226.6318 L670.9097,226.6318 A0,0 0 0 0 670.9097,226.6318 L670.9097,181.2334 L660.9097,171.2334 L319.5459,171.2334 A0,0 0 0 0 319.5459,171.2334" fill="#FEFFDD" style="stroke:#181818;stroke-width:0.5;"/><path d="M660.9097,171.2334 L660.9097,181.2334 L670.9097,181.2334 L660.9097,171.2334" fill="#FEFFDD" style="stroke:#181818;stroke-width:0.5;"/><text fill="#000000" font-family="sans-serif" font-size="13" lengthAdjust="spacing" textLength="330.3638" x="325.5459" y="188.3003">Rincian cara RecommendationService menghitung</text><text fill="#000000" font-family="sans-serif" font-size="13" lengthAdjust="spacing" textLength="280.7314" x="325.5459" y="203.4331">skor CB/CF/hybrid ada di diagram terpisah:</text><text fill="#000000" font-family="sans-serif" font-size="13" lengthAdjust="spacing" textLength="273.127" x="325.5459" y="218.5659">06-activity-recommendation-service.puml</text><rect fill="#F1F1F1" height="47.9375" rx="12.5" ry="12.5" style="stroke:#181818;stroke-width:0.5;" width="268.4141" x="31.1318" y="174.9639"/><text fill="#000000" font-family="sans-serif" font-size="12" lengthAdjust="spacing" textLength="166.9746" x="41.1318" y="196.1025">Lihat rekomendasi personal</text><text fill="#000000" font-family="sans-serif" font-size="12" lengthAdjust="spacing" textLength="248.4141" x="41.1318" y="210.0713">(Content-Based + Collaborative Filtering)</text><rect fill="#F1F1F1" height="33.9688" rx="12.5" ry="12.5" style="stroke:#181818;stroke-width:0.5;" width="140.7031" x="94.9873" y="246.6318"/><text fill="#000000" font-family="sans-serif" font-size="12" lengthAdjust="spacing" textLength="120.7031" x="104.9873" y="267.7705">Pilih kos, lihat detail</text><rect fill="#F1F1F1" height="47.9375" rx="12.5" ry="12.5" style="stroke:#181818;stroke-width:0.5;" width="210.1074" x="60.2852" y="354.5693"/><text fill="#000000" font-family="sans-serif" font-size="12" lengthAdjust="spacing" textLength="96.75" x="70.2852" y="375.708">Isi form booking</text><text fill="#000000" font-family="sans-serif" font-size="12" lengthAdjust="spacing" textLength="190.1074" x="70.2852" y="389.6768">(tanggal mulai, durasi, catatan)</text><rect fill="#F1F1F1" height="33.9688" rx="12.5" ry="12.5" style="stroke:#181818;stroke-width:0.5;" width="112.6777" x="109" y="422.5068"/><text fill="#000000" font-family="sans-serif" font-size="12" lengthAdjust="spacing" textLength="92.6777" x="119" y="443.6455">Ajukan booking</text><rect fill="#F1F1F1" height="61.9063" rx="12.5" ry="12.5" style="stroke:#181818;stroke-width:0.5;" width="226.5957" x="52.041" y="1051.8984"/><text fill="#000000" font-family="sans-serif" font-size="12" lengthAdjust="spacing" textLength="193.998" x="62.041" y="1073.0371">Bayar sewa langsung ke pemilik</text><text fill="#000000" font-family="sans-serif" font-size="12" lengthAdjust="spacing" textLength="188.2441" x="62.041" y="1087.0059">(transfer/tunai -- di luar sistem,</text><text fill="#000000" font-family="sans-serif" font-size="12" lengthAdjust="spacing" textLength="206.5957" x="62.041" y="1100.9746">KosKita tidak proses pembayaran)</text><rect fill="#F1F1F1" height="33.9688" rx="12.5" ry="12.5" style="stroke:#181818;stroke-width:0.5;" width="232.6777" x="49" y="1676.0635"/><text fill="#000000" font-family="sans-serif" font-size="12" lengthAdjust="spacing" textLength="212.6777" x="59" y="1697.2021">Isi rating, komentar, foto (opsional)</text><rect fill="#F1F1F1" height="33.9688" rx="12.5" ry="12.5" style="stroke:#181818;stroke-width:0.5;" width="94.4785" x="118.0996" y="1730.0322"/><text fill="#000000" font-family="sans-serif" font-size="12" lengthAdjust="spacing" textLength="74.4785" x="128.0996" y="1751.1709">Kirim ulasan</text><polygon fill="#F1F1F1" points="165.3389,1627.6611,177.3389,1639.6611,165.3389,1651.6611,153.3389,1639.6611,165.3389,1627.6611" style="stroke:#181818;stroke-width:0.5;stroke-linejoin:miter;stroke-miterlimit:10;"/><text fill="#000000" font-family="sans-serif" font-size="11" lengthAdjust="spacing" textLength="87.5918" x="171.3389" y="1625.0669">Menulis ulasan?</text><text fill="#000000" font-family="sans-serif" font-size="11" lengthAdjust="spacing" textLength="13.2505" x="171.3389" y="1661.8716">ya</text><text fill="#000000" font-family="sans-serif" font-size="11" lengthAdjust="spacing" textLength="120.377" x="177.3389" y="1637.0669">tidak, untuk sekarang</text><polygon fill="#F1F1F1" points="165.3389,2099.5132,177.3389,2111.5132,165.3389,2123.5132,153.3389,2111.5132,165.3389,2099.5132" style="stroke:#181818;stroke-width:0.5;stroke-linejoin:miter;stroke-miterlimit:10;"/><line style="stroke:#000000;stroke-width:1.5;" x1="20" x2="20" y1="55.042" y2="2165.5132"/><rect fill="#F1F1F1" height="33.9688" rx="12.5" ry="12.5" style="stroke:#181818;stroke-width:0.5;" width="196.6367" x="743.2944" y="300.6006"/><text fill="#000000" font-family="sans-serif" font-size="12" lengthAdjust="spacing" textLength="176.6367" x="753.2944" y="321.7393">Catat interaksi (klik/lihat kos)</text><polygon fill="#F1F1F1" points="841.6128,480.3745,853.6128,492.3745,841.6128,504.3745,829.6128,492.3745,841.6128,480.3745" style="stroke:#181818;stroke-width:0.5;stroke-linejoin:miter;stroke-miterlimit:10;"/><text fill="#000000" font-family="sans-serif" font-size="11" lengthAdjust="spacing" textLength="90.1484" x="847.6128" y="477.7803">Kamar tersedia?</text><text fill="#000000" font-family="sans-serif" font-size="11" lengthAdjust="spacing" textLength="27.4624" x="802.1504" y="489.7803">tidak</text><text fill="#000000" font-family="sans-serif" font-size="11" lengthAdjust="spacing" textLength="13.2505" x="853.6128" y="489.7803">ya</text><rect fill="#F1F1F1" height="47.9375" rx="12.5" ry="12.5" style="stroke:#181818;stroke-width:0.5;" width="140.8555" x="681.9097" y="514.3745"/><text fill="#000000" font-family="sans-serif" font-size="12" lengthAdjust="spacing" textLength="88.8457" x="691.9097" y="535.5132">Tolak otomatis</text><text fill="#000000" font-family="sans-serif" font-size="12" lengthAdjust="spacing" textLength="120.8555" x="691.9097" y="549.4819">"kos sedang penuh"</text><ellipse cx="752.3374" cy="593.312" fill="none" rx="11" ry="11" style="stroke:#222222;stroke-width:1;"/><ellipse cx="752.3374" cy="593.312" fill="#222222" rx="6" ry="6" style="stroke:#222222;stroke-width:1;"/><rect fill="#F1F1F1" height="47.9375" rx="12.5" ry="12.5" style="stroke:#181818;stroke-width:0.5;" width="132.6992" x="864.5386" y="514.3745"/><text fill="#000000" font-family="sans-serif" font-size="12" lengthAdjust="spacing" textLength="96.8379" x="874.5386" y="535.5132">Simpan booking</text><text fill="#000000" font-family="sans-serif" font-size="12" lengthAdjust="spacing" textLength="112.6992" x="874.5386" y="549.4819">(status = pending)</text><rect fill="#F1F1F1" height="47.9375" rx="12.5" ry="12.5" style="stroke:#181818;stroke-width:0.5;" width="176.2461" x="842.7651" y="582.312"/><text fill="#000000" font-family="sans-serif" font-size="12" lengthAdjust="spacing" textLength="102.4219" x="852.7651" y="603.4507">Beri tahu pemilik</text><text fill="#000000" font-family="sans-serif" font-size="12" lengthAdjust="spacing" textLength="156.2461" x="852.7651" y="617.4194">(notifikasi in-app + email)</text><rect fill="#F1F1F1" height="47.9375" rx="12.5" ry="12.5" style="stroke:#181818;stroke-width:0.5;" width="133.0391" x="682.7124" y="806.0859"/><text fill="#000000" font-family="sans-serif" font-size="12" lengthAdjust="spacing" textLength="113.0391" x="692.7124" y="827.2246">Beri tahu penyewa</text><text fill="#000000" font-family="sans-serif" font-size="12" lengthAdjust="spacing" textLength="89.2207" x="692.7124" y="841.1934">(email + push)</text><ellipse cx="749.2319" cy="885.0234" fill="none" rx="11" ry="11" style="stroke:#222222;stroke-width:1;"/><ellipse cx="749.2319" cy="885.0234" fill="#222222" rx="6" ry="6" style="stroke:#222222;stroke-width:1;"/><rect fill="#F1F1F1" height="33.9688" rx="12.5" ry="12.5" style="stroke:#181818;stroke-width:0.5;" width="170.457" x="848.7651" y="752.1172"/><text fill="#000000" font-family="sans-serif" font-size="12" lengthAdjust="spacing" textLength="150.457" x="858.7651" y="773.2559">Ubah status = confirmed</text><rect fill="#F1F1F1" height="47.9375" rx="12.5" ry="12.5" style="stroke:#181818;stroke-width:0.5;" width="145.5898" x="768.8179" y="916.0234"/><text fill="#000000" font-family="sans-serif" font-size="12" lengthAdjust="spacing" textLength="113.0391" x="778.8179" y="937.1621">Beri tahu penyewa</text><text fill="#000000" font-family="sans-serif" font-size="12" lengthAdjust="spacing" textLength="125.5898" x="778.8179" y="951.1309">booking dikonfirmasi</text><rect fill="#F1F1F1" height="47.9375" rx="12.5" ry="12.5" style="stroke:#181818;stroke-width:0.5;" width="195.8809" x="743.6724" y="983.9609"/><text fill="#000000" font-family="sans-serif" font-size="12" lengthAdjust="spacing" textLength="175.8809" x="753.6724" y="1005.0996">Tampilkan kode QRIS pemilik</text><text fill="#000000" font-family="sans-serif" font-size="12" lengthAdjust="spacing" textLength="163.3301" x="753.6724" y="1019.0684">di halaman kos (kalau ada)</text><rect fill="#F1F1F1" height="47.9375" rx="12.5" ry="12.5" style="stroke:#181818;stroke-width:0.5;" width="197.1582" x="743.0337" y="1309.6797"/><text fill="#000000" font-family="sans-serif" font-size="12" lengthAdjust="spacing" textLength="172.0898" x="753.0337" y="1330.8184">Hitung ulang kamar tersedia</text><text fill="#000000" font-family="sans-serif" font-size="12" lengthAdjust="spacing" textLength="177.1582" x="753.0337" y="1344.7871">(available_rooms bertambah)</text><rect fill="#F1F1F1" height="47.9375" rx="12.5" ry="12.5" style="stroke:#181818;stroke-width:0.5;" width="240.7695" x="721.228" y="1429.9185"/><text fill="#000000" font-family="sans-serif" font-size="12" lengthAdjust="spacing" textLength="220.7695" x="731.228" y="1451.0571">Kirim notifikasi "kamar tersedia lagi"</text><text fill="#000000" font-family="sans-serif" font-size="12" lengthAdjust="spacing" textLength="193.9395" x="731.228" y="1465.0259">(push + email) ke daftar tunggu</text><polygon fill="#F1F1F1" points="841.6128,1381.5161,853.6128,1393.5161,841.6128,1405.5161,829.6128,1393.5161,841.6128,1381.5161" style="stroke:#181818;stroke-width:0.5;stroke-linejoin:miter;stroke-miterlimit:10;"/><text fill="#000000" font-family="sans-serif" font-size="11" lengthAdjust="spacing" textLength="196.5337" x="847.6128" y="1378.9219">Ada penyewa lain di daftar tunggu?</text><text fill="#000000" font-family="sans-serif" font-size="11" lengthAdjust="spacing" textLength="13.2505" x="847.6128" y="1415.7266">ya</text><text fill="#000000" font-family="sans-serif" font-size="11" lengthAdjust="spacing" textLength="27.4624" x="853.6128" y="1390.9219">tidak</text><polygon fill="#F1F1F1" points="841.6128,1497.856,853.6128,1509.856,841.6128,1521.856,829.6128,1509.856,841.6128,1497.856" style="stroke:#181818;stroke-width:0.5;stroke-linejoin:miter;stroke-miterlimit:10;"/><rect fill="#F1F1F1" height="61.9063" rx="12.5" ry="12.5" style="stroke:#181818;stroke-width:0.5;" width="215.709" x="733.7583" y="1541.856"/><text fill="#000000" font-family="sans-serif" font-size="12" lengthAdjust="spacing" textLength="112.7285" x="743.7583" y="1562.9946">Munculkan prompt</text><text fill="#000000" font-family="sans-serif" font-size="12" lengthAdjust="spacing" textLength="155.6367" x="743.7583" y="1576.9634">"Beri Ulasan" ke penyewa</text><text fill="#000000" font-family="sans-serif" font-size="12" lengthAdjust="spacing" textLength="195.709" x="743.7583" y="1590.9321">(in-app, berulang sampai ditulis)</text><rect fill="#F1F1F1" height="33.9688" rx="12.5" ry="12.5" style="stroke:#181818;stroke-width:0.5;" width="108.5352" x="787.3452" y="1784.001"/><text fill="#000000" font-family="sans-serif" font-size="12" lengthAdjust="spacing" textLength="88.5352" x="797.3452" y="1805.1396">Simpan ulasan</text><rect fill="#F1F1F1" height="33.9688" rx="12.5" ry="12.5" style="stroke:#181818;stroke-width:0.5;" width="190.9531" x="746.1362" y="1837.9697"/><text fill="#000000" font-family="sans-serif" font-size="12" lengthAdjust="spacing" textLength="170.9531" x="756.1362" y="1859.1084">Perbarui rata-rata rating kos</text><rect fill="#F1F1F1" height="33.9688" rx="12.5" ry="12.5" style="stroke:#181818;stroke-width:0.5;" width="223.2031" x="730.0112" y="1895.2744"/><text fill="#000000" font-family="sans-serif" font-size="12" lengthAdjust="spacing" textLength="203.2031" x="740.0112" y="1916.4131">Beri tahu pemilik ada ulasan baru</text><line style="stroke:#000000;stroke-width:1.5;" x1="675.9097" x2="675.9097" y1="55.042" y2="2165.5132"/><rect fill="#F1F1F1" height="33.9688" rx="12.5" ry="12.5" style="stroke:#181818;stroke-width:0.5;" width="175.4727" x="1139.3242" y="650.2495"/><text fill="#000000" font-family="sans-serif" font-size="12" lengthAdjust="spacing" textLength="155.4727" x="1149.3242" y="671.3882">Tinjau pengajuan booking</text><polygon fill="#F1F1F1" points="1227.0605,708.1172,1239.0605,720.1172,1227.0605,732.1172,1215.0605,720.1172,1227.0605,708.1172" style="stroke:#181818;stroke-width:0.5;stroke-linejoin:miter;stroke-miterlimit:10;"/><text fill="#000000" font-family="sans-serif" font-size="11" lengthAdjust="spacing" textLength="43.957" x="1233.0605" y="705.5229">Setujui?</text><text fill="#000000" font-family="sans-serif" font-size="11" lengthAdjust="spacing" textLength="27.21" x="1187.8506" y="717.5229">tolak</text><text fill="#000000" font-family="sans-serif" font-size="11" lengthAdjust="spacing" textLength="57.7661" x="1239.0605" y="717.5229">konfirmasi</text><rect fill="#F1F1F1" height="33.9688" rx="12.5" ry="12.5" style="stroke:#181818;stroke-width:0.5;" width="159.0664" x="1055.1465" y="752.1172"/><text fill="#000000" font-family="sans-serif" font-size="12" lengthAdjust="spacing" textLength="139.0664" x="1065.1465" y="773.2559">Ubah status = rejected</text><rect fill="#F1F1F1" height="33.9688" rx="12.5" ry="12.5" style="stroke:#181818;stroke-width:0.5;" width="222.1133" x="1116.0039" y="1133.8047"/><text fill="#000000" font-family="sans-serif" font-size="12" lengthAdjust="spacing" textLength="202.1133" x="1126.0039" y="1154.9434">Tandai "Sudah Dibayar" (manual)</text><rect fill="#F1F1F1" height="33.9688" rx="12.5" ry="12.5" style="stroke:#181818;stroke-width:0.5;" width="147.623" x="1153.249" y="1187.7734"/><line style="stroke:#181818;stroke-width:1;" x1="1153.249" x2="1163.249" y1="1204.7578" y2="1204.7578"/><text fill="#000000" font-family="sans-serif" font-size="12" lengthAdjust="spacing" textLength="119.9941" x="1167.0635" y="1208.4121">masa sewa berjalan</text><line style="stroke:#181818;stroke-width:1;" x1="1290.8721" x2="1300.8721" y1="1204.7578" y2="1204.7578"/><rect fill="#F1F1F1" height="47.9375" rx="12.5" ry="12.5" style="stroke:#181818;stroke-width:0.5;" width="189.0195" x="1132.5508" y="1241.7422"/><text fill="#000000" font-family="sans-serif" font-size="12" lengthAdjust="spacing" textLength="162.6328" x="1142.5508" y="1262.8809">Tandai status = completed</text><text fill="#000000" font-family="sans-serif" font-size="12" lengthAdjust="spacing" textLength="169.0195" x="1142.5508" y="1276.8496">setelah masa sewa berakhir</text><rect fill="#F1F1F1" height="33.9688" rx="12.5" ry="12.5" style="stroke:#181818;stroke-width:0.5;" width="141.8574" x="1156.1318" y="2001.5444"/><text fill="#000000" font-family="sans-serif" font-size="12" lengthAdjust="spacing" textLength="121.8574" x="1166.1318" y="2022.6831">Tulis balasan ulasan</text><polygon fill="#F1F1F1" points="1227.0605,1953.1421,1239.0605,1965.1421,1227.0605,1977.1421,1215.0605,1965.1421,1227.0605,1953.1421" style="stroke:#181818;stroke-width:0.5;stroke-linejoin:miter;stroke-miterlimit:10;"/><text fill="#000000" font-family="sans-serif" font-size="11" lengthAdjust="spacing" textLength="94.0103" x="1233.0605" y="1950.5479">Ingin membalas?</text><text fill="#000000" font-family="sans-serif" font-size="11" lengthAdjust="spacing" textLength="13.2505" x="1233.0605" y="1987.3525">ya</text><text fill="#000000" font-family="sans-serif" font-size="11" lengthAdjust="spacing" textLength="27.4624" x="1239.0605" y="1962.5479">tidak</text><polygon fill="#F1F1F1" points="1227.0605,2055.5132,1239.0605,2067.5132,1227.0605,2079.5132,1215.0605,2067.5132,1227.0605,2055.5132" style="stroke:#181818;stroke-width:0.5;stroke-linejoin:miter;stroke-miterlimit:10;"/><ellipse cx="1227.0605" cy="2154.5132" fill="none" rx="11" ry="11" style="stroke:#222222;stroke-width:1;"/><ellipse cx="1227.0605" cy="2154.5132" fill="#222222" rx="6" ry="6" style="stroke:#222222;stroke-width:1;"/><line style="stroke:#000000;stroke-width:1.5;" x1="1049.1465" x2="1049.1465" y1="55.042" y2="2165.5132"/><line style="stroke:#000000;stroke-width:1.5;" x1="1342.1172" x2="1342.1172" y1="55.042" y2="2165.5132"/><line style="stroke:#181818;stroke-width:1;" x1="165.3389" x2="165.3389" y1="100.9951" y2="120.9951"/><polygon fill="#181818" points="161.3389,110.9951,165.3389,120.9951,169.3389,110.9951,165.3389,114.9951" style="stroke:#181818;stroke-width:1;stroke-linejoin:miter;stroke-miterlimit:10;"/><line style="stroke:#181818;stroke-width:1;" x1="165.3389" x2="165.3389" y1="154.9639" y2="174.9639"/><polygon fill="#181818" points="161.3389,164.9639,165.3389,174.9639,169.3389,164.9639,165.3389,168.9639" style="stroke:#181818;stroke-width:1;stroke-linejoin:miter;stroke-miterlimit:10;"/><line style="stroke:#181818;stroke-width:1;" x1="165.3389" x2="165.3389" y1="222.9014" y2="246.6318"/><polygon fill="#181818" points="161.3389,236.6318,165.3389,246.6318,169.3389,236.6318,165.3389,240.6318" style="stroke:#181818;stroke-width:1;stroke-linejoin:miter;stroke-miterlimit:10;"/><line style="stroke:#181818;stroke-width:1;" x1="165.3389" x2="165.3389" y1="402.5068" y2="422.5068"/><polygon fill="#181818" points="161.3389,412.5068,165.3389,422.5068,169.3389,412.5068,165.3389,416.5068" style="stroke:#181818;stroke-width:1;stroke-linejoin:miter;stroke-miterlimit:10;"/><line style="stroke:#181818;stroke-width:1;" x1="165.3389" x2="165.3389" y1="1710.0322" y2="1730.0322"/><polygon fill="#181818" points="161.3389,1720.0322,165.3389,1730.0322,169.3389,1720.0322,165.3389,1724.0322" style="stroke:#181818;stroke-width:1;stroke-linejoin:miter;stroke-miterlimit:10;"/><line style="stroke:#181818;stroke-width:1;" x1="165.3389" x2="165.3389" y1="1651.6611" y2="1676.0635"/><polygon fill="#181818" points="161.3389,1666.0635,165.3389,1676.0635,169.3389,1666.0635,165.3389,1670.0635" style="stroke:#181818;stroke-width:1;stroke-linejoin:miter;stroke-miterlimit:10;"/><line style="stroke:#181818;stroke-width:1;" x1="153.3389" x2="39" y1="1639.6611" y2="1639.6611"/><polygon fill="#181818" points="35,1865.2744,39,1875.2744,43,1865.2744,39,1869.2744" style="stroke:#181818;stroke-width:1;stroke-linejoin:miter;stroke-miterlimit:10;"/><line style="stroke:#181818;stroke-width:1;" x1="39" x2="39" y1="1639.6611" y2="2111.5132"/><line style="stroke:#181818;stroke-width:1;" x1="39" x2="153.3389" y1="2111.5132" y2="2111.5132"/><polygon fill="#181818" points="143.3389,2107.5132,153.3389,2111.5132,143.3389,2115.5132,147.3389,2111.5132" style="stroke:#181818;stroke-width:1;stroke-linejoin:miter;stroke-miterlimit:10;"/><line style="stroke:#181818;stroke-width:1;" x1="752.3374" x2="752.3374" y1="562.312" y2="582.312"/><polygon fill="#181818" points="748.3374,572.312,752.3374,582.312,756.3374,572.312,752.3374,576.312" style="stroke:#181818;stroke-width:1;stroke-linejoin:miter;stroke-miterlimit:10;"/><line style="stroke:#181818;stroke-width:1;" x1="930.8882" x2="930.8882" y1="562.312" y2="582.312"/><polygon fill="#181818" points="926.8882,572.312,930.8882,582.312,934.8882,572.312,930.8882,576.312" style="stroke:#181818;stroke-width:1;stroke-linejoin:miter;stroke-miterlimit:10;"/><line style="stroke:#181818;stroke-width:1;" x1="829.6128" x2="752.3374" y1="492.3745" y2="492.3745"/><line style="stroke:#181818;stroke-width:1;" x1="752.3374" x2="752.3374" y1="492.3745" y2="514.3745"/><polygon fill="#181818" points="748.3374,504.3745,752.3374,514.3745,756.3374,504.3745,752.3374,508.3745" style="stroke:#181818;stroke-width:1;stroke-linejoin:miter;stroke-miterlimit:10;"/><line style="stroke:#181818;stroke-width:1;" x1="853.6128" x2="930.8882" y1="492.3745" y2="492.3745"/><line style="stroke:#181818;stroke-width:1;" x1="930.8882" x2="930.8882" y1="492.3745" y2="514.3745"/><polygon fill="#181818" points="926.8882,504.3745,930.8882,514.3745,934.8882,504.3745,930.8882,508.3745" style="stroke:#181818;stroke-width:1;stroke-linejoin:miter;stroke-miterlimit:10;"/><line style="stroke:#181818;stroke-width:1;" x1="930.8882" x2="930.8882" y1="630.2495" y2="635.2495"/><line style="stroke:#181818;stroke-width:1;" x1="930.8882" x2="1227.0605" y1="635.2495" y2="635.2495"/><line style="stroke:#181818;stroke-width:1;" x1="1227.0605" x2="1227.0605" y1="635.2495" y2="650.2495"/><polygon fill="#181818" points="1223.0605,640.2495,1227.0605,650.2495,1231.0605,640.2495,1227.0605,644.2495" style="stroke:#181818;stroke-width:1;stroke-linejoin:miter;stroke-miterlimit:10;"/><line style="stroke:#181818;stroke-width:1;" x1="749.2319" x2="749.2319" y1="854.0234" y2="874.0234"/><polygon fill="#181818" points="745.2319,864.0234,749.2319,874.0234,753.2319,864.0234,749.2319,868.0234" style="stroke:#181818;stroke-width:1;stroke-linejoin:miter;stroke-miterlimit:10;"/><line style="stroke:#181818;stroke-width:1;" x1="841.6128" x2="841.6128" y1="963.9609" y2="983.9609"/><polygon fill="#181818" points="837.6128,973.9609,841.6128,983.9609,845.6128,973.9609,841.6128,977.9609" style="stroke:#181818;stroke-width:1;stroke-linejoin:miter;stroke-miterlimit:10;"/><line style="stroke:#181818;stroke-width:1;" x1="841.6128" x2="841.6128" y1="1405.5161" y2="1429.9185"/><polygon fill="#181818" points="837.6128,1419.9185,841.6128,1429.9185,845.6128,1419.9185,841.6128,1423.9185" style="stroke:#181818;stroke-width:1;stroke-linejoin:miter;stroke-miterlimit:10;"/><line style="stroke:#181818;stroke-width:1;" x1="853.6128" x2="971.9976" y1="1393.5161" y2="1393.5161"/><polygon fill="#181818" points="967.9976,1443.8872,971.9976,1453.8872,975.9976,1443.8872,971.9976,1447.8872" style="stroke:#181818;stroke-width:1;stroke-linejoin:miter;stroke-miterlimit:10;"/><line style="stroke:#181818;stroke-width:1;" x1="971.9976" x2="971.9976" y1="1393.5161" y2="1509.856"/><line style="stroke:#181818;stroke-width:1;" x1="971.9976" x2="853.6128" y1="1509.856" y2="1509.856"/><polygon fill="#181818" points="863.6128,1505.856,853.6128,1509.856,863.6128,1513.856,859.6128,1509.856" style="stroke:#181818;stroke-width:1;stroke-linejoin:miter;stroke-miterlimit:10;"/><line style="stroke:#181818;stroke-width:1;" x1="841.6128" x2="841.6128" y1="1477.856" y2="1497.856"/><polygon fill="#181818" points="837.6128,1487.856,841.6128,1497.856,845.6128,1487.856,841.6128,1491.856" style="stroke:#181818;stroke-width:1;stroke-linejoin:miter;stroke-miterlimit:10;"/><line style="stroke:#181818;stroke-width:1;" x1="841.6128" x2="841.6128" y1="1357.6172" y2="1381.5161"/><polygon fill="#181818" points="837.6128,1371.5161,841.6128,1381.5161,845.6128,1371.5161,841.6128,1375.5161" style="stroke:#181818;stroke-width:1;stroke-linejoin:miter;stroke-miterlimit:10;"/><line style="stroke:#181818;stroke-width:1;" x1="841.6128" x2="841.6128" y1="1521.856" y2="1541.856"/><polygon fill="#181818" points="837.6128,1531.856,841.6128,1541.856,845.6128,1531.856,841.6128,1535.856" style="stroke:#181818;stroke-width:1;stroke-linejoin:miter;stroke-miterlimit:10;"/><line style="stroke:#181818;stroke-width:1;" x1="841.6128" x2="841.6128" y1="1817.9697" y2="1837.9697"/><polygon fill="#181818" points="837.6128,1827.9697,841.6128,1837.9697,845.6128,1827.9697,841.6128,1831.9697" style="stroke:#181818;stroke-width:1;stroke-linejoin:miter;stroke-miterlimit:10;"/><line style="stroke:#181818;stroke-width:1;" x1="841.6128" x2="841.6128" y1="1871.9385" y2="1895.2744"/><polygon fill="#181818" points="837.6128,1885.2744,841.6128,1895.2744,845.6128,1885.2744,841.6128,1889.2744" style="stroke:#181818;stroke-width:1;stroke-linejoin:miter;stroke-miterlimit:10;"/><line style="stroke:#181818;stroke-width:1;" x1="1215.0605" x2="1134.6797" y1="720.1172" y2="720.1172"/><line style="stroke:#181818;stroke-width:1;" x1="1134.6797" x2="1134.6797" y1="720.1172" y2="752.1172"/><polygon fill="#181818" points="1130.6797,742.1172,1134.6797,752.1172,1138.6797,742.1172,1134.6797,746.1172" style="stroke:#181818;stroke-width:1;stroke-linejoin:miter;stroke-miterlimit:10;"/><line style="stroke:#181818;stroke-width:1;" x1="1227.0605" x2="1227.0605" y1="684.2183" y2="708.1172"/><polygon fill="#181818" points="1223.0605,698.1172,1227.0605,708.1172,1231.0605,698.1172,1227.0605,702.1172" style="stroke:#181818;stroke-width:1;stroke-linejoin:miter;stroke-miterlimit:10;"/><line style="stroke:#181818;stroke-width:1;" x1="1227.0605" x2="1227.0605" y1="1167.7734" y2="1187.7734"/><polygon fill="#181818" points="1223.0605,1177.7734,1227.0605,1187.7734,1231.0605,1177.7734,1227.0605,1181.7734" style="stroke:#181818;stroke-width:1;stroke-linejoin:miter;stroke-miterlimit:10;"/><line style="stroke:#181818;stroke-width:1;" x1="1227.0605" x2="1227.0605" y1="1221.7422" y2="1241.7422"/><polygon fill="#181818" points="1223.0605,1231.7422,1227.0605,1241.7422,1231.0605,1231.7422,1227.0605,1235.7422" style="stroke:#181818;stroke-width:1;stroke-linejoin:miter;stroke-miterlimit:10;"/><line style="stroke:#181818;stroke-width:1;" x1="1227.0605" x2="1227.0605" y1="1977.1421" y2="2001.5444"/><polygon fill="#181818" points="1223.0605,1991.5444,1227.0605,2001.5444,1231.0605,1991.5444,1227.0605,1995.5444" style="stroke:#181818;stroke-width:1;stroke-linejoin:miter;stroke-miterlimit:10;"/><line style="stroke:#181818;stroke-width:1;" x1="1239.0605" x2="1307.9893" y1="1965.1421" y2="1965.1421"/><polygon fill="#181818" points="1303.9893,2008.5288,1307.9893,2018.5288,1311.9893,2008.5288,1307.9893,2012.5288" style="stroke:#181818;stroke-width:1;stroke-linejoin:miter;stroke-miterlimit:10;"/><line style="stroke:#181818;stroke-width:1;" x1="1307.9893" x2="1307.9893" y1="1965.1421" y2="2067.5132"/><line style="stroke:#181818;stroke-width:1;" x1="1307.9893" x2="1239.0605" y1="2067.5132" y2="2067.5132"/><polygon fill="#181818" points="1249.0605,2063.5132,1239.0605,2067.5132,1249.0605,2071.5132,1245.0605,2067.5132" style="stroke:#181818;stroke-width:1;stroke-linejoin:miter;stroke-miterlimit:10;"/><line style="stroke:#181818;stroke-width:1;" x1="1227.0605" x2="1227.0605" y1="2035.5132" y2="2055.5132"/><polygon fill="#181818" points="1223.0605,2045.5132,1227.0605,2055.5132,1231.0605,2045.5132,1227.0605,2049.5132" style="stroke:#181818;stroke-width:1;stroke-linejoin:miter;stroke-miterlimit:10;"/><line style="stroke:#181818;stroke-width:1;" x1="165.3389" x2="165.3389" y1="280.6006" y2="285.6006"/><line style="stroke:#181818;stroke-width:1;" x1="165.3389" x2="841.6128" y1="285.6006" y2="285.6006"/><line style="stroke:#181818;stroke-width:1;" x1="841.6128" x2="841.6128" y1="285.6006" y2="300.6006"/><polygon fill="#181818" points="837.6128,290.6006,841.6128,300.6006,845.6128,290.6006,841.6128,294.6006" style="stroke:#181818;stroke-width:1;stroke-linejoin:miter;stroke-miterlimit:10;"/><line style="stroke:#181818;stroke-width:1;" x1="841.6128" x2="841.6128" y1="334.5693" y2="339.5693"/><line style="stroke:#181818;stroke-width:1;" x1="841.6128" x2="165.3389" y1="339.5693" y2="339.5693"/><line style="stroke:#181818;stroke-width:1;" x1="165.3389" x2="165.3389" y1="339.5693" y2="354.5693"/><polygon fill="#181818" points="161.3389,344.5693,165.3389,354.5693,169.3389,344.5693,165.3389,348.5693" style="stroke:#181818;stroke-width:1;stroke-linejoin:miter;stroke-miterlimit:10;"/><line style="stroke:#181818;stroke-width:1;" x1="165.3389" x2="165.3389" y1="456.4756" y2="461.4756"/><line style="stroke:#181818;stroke-width:1;" x1="165.3389" x2="841.6128" y1="461.4756" y2="461.4756"/><line style="stroke:#181818;stroke-width:1;" x1="841.6128" x2="841.6128" y1="461.4756" y2="480.3745"/><polygon fill="#181818" points="837.6128,470.3745,841.6128,480.3745,845.6128,470.3745,841.6128,474.3745" style="stroke:#181818;stroke-width:1;stroke-linejoin:miter;stroke-miterlimit:10;"/><line style="stroke:#181818;stroke-width:1;" x1="1134.6797" x2="1134.6797" y1="786.0859" y2="791.0859"/><line style="stroke:#181818;stroke-width:1;" x1="1134.6797" x2="749.2319" y1="791.0859" y2="791.0859"/><line style="stroke:#181818;stroke-width:1;" x1="749.2319" x2="749.2319" y1="791.0859" y2="806.0859"/><polygon fill="#181818" points="745.2319,796.0859,749.2319,806.0859,753.2319,796.0859,749.2319,800.0859" style="stroke:#181818;stroke-width:1;stroke-linejoin:miter;stroke-miterlimit:10;"/><line style="stroke:#181818;stroke-width:1;" x1="1239.0605" x2="1251.0605" y1="720.1172" y2="720.1172"/><line style="stroke:#181818;stroke-width:1;" x1="1251.0605" x2="1251.0605" y1="720.1172" y2="747.7207"/><line style="stroke:#181818;stroke-width:1;" x1="1251.0605" x2="933.9937" y1="747.7207" y2="747.7207"/><line style="stroke:#181818;stroke-width:1;" x1="933.9937" x2="933.9937" y1="747.7207" y2="752.1172"/><polygon fill="#181818" points="929.9937,742.1172,933.9937,752.1172,937.9937,742.1172,933.9937,746.1172" style="stroke:#181818;stroke-width:1;stroke-linejoin:miter;stroke-miterlimit:10;"/><line style="stroke:#181818;stroke-width:1;" x1="933.9937" x2="933.9937" y1="786.0859" y2="901.0234"/><line style="stroke:#181818;stroke-width:1;" x1="933.9937" x2="841.6128" y1="901.0234" y2="901.0234"/><line style="stroke:#181818;stroke-width:1;" x1="841.6128" x2="841.6128" y1="901.0234" y2="916.0234"/><polygon fill="#181818" points="837.6128,906.0234,841.6128,916.0234,845.6128,906.0234,841.6128,910.0234" style="stroke:#181818;stroke-width:1;stroke-linejoin:miter;stroke-miterlimit:10;"/><line style="stroke:#181818;stroke-width:1;" x1="841.6128" x2="841.6128" y1="1031.8984" y2="1036.8984"/><line style="stroke:#181818;stroke-width:1;" x1="841.6128" x2="165.3389" y1="1036.8984" y2="1036.8984"/><line style="stroke:#181818;stroke-width:1;" x1="165.3389" x2="165.3389" y1="1036.8984" y2="1051.8984"/><polygon fill="#181818" points="161.3389,1041.8984,165.3389,1051.8984,169.3389,1041.8984,165.3389,1045.8984" style="stroke:#181818;stroke-width:1;stroke-linejoin:miter;stroke-miterlimit:10;"/><line style="stroke:#181818;stroke-width:1;" x1="165.3389" x2="165.3389" y1="1113.8047" y2="1118.8047"/><line style="stroke:#181818;stroke-width:1;" x1="165.3389" x2="1227.0605" y1="1118.8047" y2="1118.8047"/><line style="stroke:#181818;stroke-width:1;" x1="1227.0605" x2="1227.0605" y1="1118.8047" y2="1133.8047"/><polygon fill="#181818" points="1223.0605,1123.8047,1227.0605,1133.8047,1231.0605,1123.8047,1227.0605,1127.8047" style="stroke:#181818;stroke-width:1;stroke-linejoin:miter;stroke-miterlimit:10;"/><line style="stroke:#181818;stroke-width:1;" x1="1227.0605" x2="1227.0605" y1="1289.6797" y2="1294.6797"/><line style="stroke:#181818;stroke-width:1;" x1="1227.0605" x2="841.6128" y1="1294.6797" y2="1294.6797"/><line style="stroke:#181818;stroke-width:1;" x1="841.6128" x2="841.6128" y1="1294.6797" y2="1309.6797"/><polygon fill="#181818" points="837.6128,1299.6797,841.6128,1309.6797,845.6128,1299.6797,841.6128,1303.6797" style="stroke:#181818;stroke-width:1;stroke-linejoin:miter;stroke-miterlimit:10;"/><line style="stroke:#181818;stroke-width:1;" x1="165.3389" x2="165.3389" y1="1764.001" y2="1769.001"/><line style="stroke:#181818;stroke-width:1;" x1="165.3389" x2="841.6128" y1="1769.001" y2="1769.001"/><line style="stroke:#181818;stroke-width:1;" x1="841.6128" x2="841.6128" y1="1769.001" y2="1784.001"/><polygon fill="#181818" points="837.6128,1774.001,841.6128,1784.001,845.6128,1774.001,841.6128,1778.001" style="stroke:#181818;stroke-width:1;stroke-linejoin:miter;stroke-miterlimit:10;"/><line style="stroke:#181818;stroke-width:1;" x1="841.6128" x2="841.6128" y1="1929.2432" y2="1934.2432"/><line style="stroke:#181818;stroke-width:1;" x1="841.6128" x2="1227.0605" y1="1934.2432" y2="1934.2432"/><line style="stroke:#181818;stroke-width:1;" x1="1227.0605" x2="1227.0605" y1="1934.2432" y2="1953.1421"/><polygon fill="#181818" points="1223.0605,1943.1421,1227.0605,1953.1421,1231.0605,1943.1421,1227.0605,1947.1421" style="stroke:#181818;stroke-width:1;stroke-linejoin:miter;stroke-miterlimit:10;"/><line style="stroke:#181818;stroke-width:1;" x1="1227.0605" x2="1227.0605" y1="2079.5132" y2="2087.312"/><line style="stroke:#181818;stroke-width:1;" x1="1227.0605" x2="165.3389" y1="2087.312" y2="2087.312"/><line style="stroke:#181818;stroke-width:1;" x1="165.3389" x2="165.3389" y1="2087.312" y2="2099.5132"/><polygon fill="#181818" points="161.3389,2089.5132,165.3389,2099.5132,169.3389,2089.5132,165.3389,2093.5132" style="stroke:#181818;stroke-width:1;stroke-linejoin:miter;stroke-miterlimit:10;"/><line style="stroke:#181818;stroke-width:1;" x1="841.6128" x2="841.6128" y1="1603.7622" y2="1608.7622"/><line style="stroke:#181818;stroke-width:1;" x1="841.6128" x2="165.3389" y1="1608.7622" y2="1608.7622"/><line style="stroke:#181818;stroke-width:1;" x1="165.3389" x2="165.3389" y1="1608.7622" y2="1627.6611"/><polygon fill="#181818" points="161.3389,1617.6611,165.3389,1627.6611,169.3389,1617.6611,165.3389,1621.6611" style="stroke:#181818;stroke-width:1;stroke-linejoin:miter;stroke-miterlimit:10;"/><line style="stroke:#181818;stroke-width:1;" x1="165.3389" x2="165.3389" y1="2123.5132" y2="2128.5132"/><line style="stroke:#181818;stroke-width:1;" x1="165.3389" x2="1227.0605" y1="2128.5132" y2="2128.5132"/><line style="stroke:#181818;stroke-width:1;" x1="1227.0605" x2="1227.0605" y1="2128.5132" y2="2143.5132"/><polygon fill="#181818" points="1223.0605,2133.5132,1227.0605,2143.5132,1231.0605,2133.5132,1227.0605,2137.5132" style="stroke:#181818;stroke-width:1;stroke-linejoin:miter;stroke-miterlimit:10;"/><text fill="#000000" font-family="sans-serif" font-size="18" lengthAdjust="spacing" textLength="80.8154" x="307.5471" y="71.75">Penyewa</text><text fill="#000000" font-family="sans-serif" font-size="18" lengthAdjust="spacing" textLength="61.4707" x="831.7927" y="71.75">Sistem</text><text fill="#000000" font-family="sans-serif" font-size="18" lengthAdjust="spacing" textLength="102.8057" x="1144.229" y="71.75">Pemilik Kos</text><?plantuml-src RLNRQkjM47tNLmn-Q6rgd_If3pQb93aS6d82QPpGbq0PMzlIMDBUObzoQiZ7TysMurj3mC7INDQijMOS9RQ6hjTHtYJkwAjmvRcZ6Jrw5qoW6-SQiHNL-AYONbeER8k0Pprhu8hNJULTikMjQvsdlsk9flYP7ha9J56YDDIOFiM4FEgvOQ4Vl9NcgXJkd2qfHBObUtfv-4xZLMeGLfj_kNAMPZDKQgNcI6kE-BEqOu09t36LGXLtA_OptgEVzSQlK0nGsNxfKzTElfn0lKKtu75s6NUOUT-_ADuVZTsP7_nU08gFnVoMlT1Fj94s6a-D2ujY_ZsZyAPndG7S88HcmLbkN-qObQEnSNR3mPJq2pgrBQ-SP-0oz2tN0QZ9eh0k6l9IrR4WUXAx5ioq1ZnwCclNvTePel5liZQ41nKOJRP2V6X0yEtDrUstgtgtyb8Ibvc7SgyQslGIk9uZ-DVVZhpuizgpC1JF31LuIeggc3yAgDPnftlEInDPsWKOMag8fdjNQY032SRr45XetBIGSWX7vcHnIkVy3X4Rv-6ImKMW2Xh2HorrgMMPKfayk9n-o8ly-VKsUs2VSjfTDZI-X_HU1mNJmdzCADR6qZXAoSq4Oy-VNSiDkUWw31jUxGYm2C7gczxOL8yMIcLqVM7QO6YyuvotbAu_jWLIc06cfTyrgnpKGzWDbAJ8TSBZ3eGrY0Hzif56JI5sndqF2vWEr255SpUPb1nDzow0c6UnMzOISEesdKwhCovDJDian-5qf0poPSKr7O1vipNhQ4e5TY3f0cEM0XWp7k3gKwWd5mmqpcx4Ty3_IPFry5AxVCnoSCCdZVQ3m9B7gX3rcRjUMjMrSQMXlvxkbaS2uU2QMmYhRmFmu4jIRr_OwOPtq3xW2xMGCs0hS5jEX8YURTWOVuM5mPsPpNGvsgH96VBqrOB_UubwcM0OweSZXmehhPqD-3-jz3m9ZPQf12zV9KUEQ0ouYLNYEVfWJ1wGhOpV0hyUhyKX-OJDhcyDD7kr0VzQL3nBvQOMVxPnV-RjfwGJKtFcVapCRv2LLwtvnplN1IqHzIYgncgbQno8lJRWJ6o-5ho9MWLbgtGmsNuDxiLBHoUE7fttH9LAHkYiHZhuN6KuAxlOMsk_buDpvW_9hbDs0OZl-eZjp1OQVbL6WvWVZXrMQQeZ3SFZwlUinowcLYvEZSxwWEt62wKArIu7qrka1zbMKyf7762dk4xHqTZrGVIK3oi-K31KkLoj_PKulfm_wc-EJxaup_HZtsRuuVZiPEIpFPGWpSrDpan7f0FTsGgATMfE15yCfASkZvjVdc4wenvVC_ad3wUKR4mDJDUevwiFVGgz2Vy1?></g></svg>